<svg width="54" height="44" viewBox="0 0 54 44" fill="none" xmlns="http://www.w3.org/2000/svg">
<path d="M37.4886 27.0152C37.2931 26.9537 37.1367 26.8027 37.0658 26.6086C35.6472 22.7235 32.001 19.8953 27.6591 19.7598C23.1508 19.6191 19.2456 22.4235 17.7474 26.4518C17.6699 26.6602 17.4935 26.8159 17.2781 26.8632C12.7411 27.8589 9.39948 31.0427 9.3019 34.9186C9.1806 39.7363 14.1174 43.799 20.3286 43.9928C22.9679 44.0752 25.4126 43.4457 27.3609 42.3249C27.5616 42.2094 27.8087 42.2099 28.0104 42.3259C29.6323 43.2585 31.5789 43.8312 33.6826 43.8969C39.4948 44.0783 44.3047 40.3198 44.4259 35.5021C44.5224 31.664 41.6141 28.3116 37.4886 27.0152Z" fill="#774F38"/>
<path d="M10.653 15.9431C12.1657 19.6915 11.1651 23.649 8.41808 24.7823C5.67109 25.9156 2.21797 23.7957 0.705307 20.0472C-0.807356 16.2988 0.193257 12.3413 2.94024 11.208C5.68722 10.0747 9.14035 12.1947 10.653 15.9431Z" fill="#774F38"/>
<path d="M43.4108 17.7036C41.5866 21.2893 42.2475 25.3279 44.887 26.7241C47.5265 28.1204 51.145 26.3455 52.9692 22.7598C54.7933 19.1742 54.1324 15.1355 51.4929 13.7393C48.8535 12.3431 45.235 14.118 43.4108 17.7036Z" fill="#774F38"/>
<path d="M24.6305 8.92346C25.105 13.9841 22.8811 18.327 19.6633 18.6236C16.4454 18.9202 13.4521 15.0582 12.9776 9.99755C12.503 4.93691 14.7269 0.593995 17.9448 0.297394C21.1626 0.000791738 24.1559 3.86282 24.6305 8.92346Z" fill="#774F38"/>
<path d="M30.1643 8.00663C29.2615 12.9999 31.1071 17.5414 34.2864 18.1502C37.4658 18.759 40.7751 15.2048 41.6778 10.2115C42.5806 5.21816 40.7351 0.676733 37.5557 0.0678866C34.3763 -0.54096 31.0671 3.01334 30.1643 8.00663Z" fill="#774F38"/>
</svg>
