<svg width="58" height="58" viewBox="0 0 58 58" fill="none" xmlns="http://www.w3.org/2000/svg">
<path fill-rule="evenodd" clip-rule="evenodd" d="M29 58C45.0163 58 58 45.0163 58 29C58 12.9837 45.0163 0 29 0C12.9837 0 0 12.9837 0 29C0 45.0163 12.9837 58 29 58ZM34.7392 25.9552C32.235 25.4736 30.7813 21.8818 31.4924 17.9325C32.2035 13.9833 34.81 11.1722 37.3142 11.6537C39.8185 12.1352 41.2721 15.7271 40.5611 19.6763C39.85 23.6256 37.2435 26.4367 34.7392 25.9552ZM27.1336 18.6576C27.5074 22.6602 25.7557 26.095 23.2212 26.3296C20.6866 26.5642 18.329 23.5097 17.9552 19.5072C17.5814 15.5046 19.333 12.0698 21.8676 11.8352C24.4022 11.6006 26.7598 14.6551 27.1336 18.6576ZM16.1242 24.2095C17.3157 27.1742 16.5275 30.3042 14.3639 31.2006C12.2002 32.0969 9.48033 30.4202 8.28887 27.4555C7.09742 24.4909 7.88555 21.3609 10.0492 20.4645C12.2129 19.5682 14.9328 21.2449 16.1242 24.2095ZM37.2614 32.9665C37.1074 32.918 36.9842 32.7985 36.9283 32.645C35.811 29.5722 32.9391 27.3353 29.5191 27.2282C25.9682 27.1169 22.8922 29.335 21.7121 32.521C21.6511 32.6858 21.5121 32.8089 21.3425 32.8463C17.7689 33.6339 15.1369 36.152 15.06 39.2174C14.9645 43.0278 18.853 46.241 23.7453 46.3943C25.8241 46.4595 27.7497 45.9616 29.2842 45.0751C29.4423 44.9838 29.637 44.9842 29.7959 45.0759C31.0734 45.8135 32.6066 46.2665 34.2635 46.3185C38.8416 46.4619 42.6302 43.4893 42.7256 39.6789C42.8016 36.6434 40.5108 33.9919 37.2614 32.9665ZM43.0888 32.7364C41.0098 31.6321 40.4892 28.4379 41.926 25.6019C43.3629 22.766 46.213 21.3622 48.292 22.4665C50.371 23.5708 50.8915 26.765 49.4547 29.6009C48.0179 32.4369 45.1678 33.8406 43.0888 32.7364Z" fill="white"/>
</svg>
