<svg width="31" height="25" viewBox="0 0 31 25" fill="none" xmlns="http://www.w3.org/2000/svg">
<path d="M21.5212 15.3495C21.409 15.3146 21.3192 15.2288 21.2785 15.1185C20.4642 12.9111 18.371 11.3041 15.8783 11.2271C13.2903 11.1472 11.0484 12.7406 10.1883 15.0294C10.1438 15.1478 10.0426 15.2363 9.9189 15.2632C7.31434 15.8289 5.396 17.6379 5.33998 19.8401C5.27034 22.5775 8.10445 24.8858 11.6701 24.9959C13.1853 25.0427 14.5887 24.6851 15.7072 24.0482C15.8224 23.9826 15.9643 23.9829 16.0801 24.0488C17.0112 24.5787 18.1287 24.9041 19.3363 24.9414C22.6729 25.0445 25.4342 22.909 25.5038 20.1716C25.5592 17.9909 23.8895 16.0861 21.5212 15.3495Z" fill="white"/>
<path d="M6.11562 9.05858C6.984 11.1884 6.40957 13.4369 4.8326 14.0809C3.25563 14.7248 1.27328 13.5203 0.404898 11.3905C-0.463482 9.26067 0.110944 7.01212 1.68791 6.36819C3.26489 5.72425 5.24724 6.92878 6.11562 9.05858Z" fill="white"/>
<path d="M24.921 10.0589C23.8738 12.0962 24.2532 14.3909 25.7685 15.1842C27.2837 15.9775 29.361 14.969 30.4082 12.9317C31.4554 10.8944 31.076 8.59974 29.5608 7.80642C28.0455 7.01311 25.9682 8.02156 24.921 10.0589Z" fill="white"/>
<path d="M14.1397 5.07015C14.4121 7.94552 13.1355 10.4131 11.2882 10.5816C9.44088 10.7501 7.72251 8.5558 7.45009 5.68043C7.17766 2.80506 8.45434 0.337497 10.3016 0.168974C12.1489 0.000449853 13.8673 2.19478 14.1397 5.07015Z" fill="white"/>
<path d="M17.3165 4.54922C16.7983 7.38632 17.8578 9.96668 19.683 10.3126C21.5082 10.6586 23.4079 8.63906 23.9262 5.80196C24.4444 2.96487 23.3849 0.384507 21.5597 0.0385719C19.7346 -0.307363 17.8348 1.71212 17.3165 4.54922Z" fill="white"/>
</svg>
