<svg width="234" height="234" viewBox="0 0 234 234" fill="none" xmlns="http://www.w3.org/2000/svg">
<rect x="2" y="2" width="230" height="230" rx="7" stroke="#3A1300" stroke-width="4" stroke-dasharray="16 16"/>
<path d="M13.184 6.42145H7.22857V12.3769H13.184V6.42145Z" fill="black"/>
<path d="M19.1394 6.42145H13.184V12.3769H19.1394V6.42145Z" fill="black"/>
<path d="M25.0948 6.42145H19.1394V12.3769H25.0948V6.42145Z" fill="black"/>
<path d="M31.0502 6.42145H25.0948V12.3769H31.0502V6.42145Z" fill="black"/>
<path d="M37.0056 6.42145H31.0502V12.3769H37.0056V6.42145Z" fill="black"/>
<path d="M42.961 6.42145H37.0056V12.3769H42.961V6.42145Z" fill="black"/>
<path d="M48.9164 6.42145H42.961V12.3769H48.9164V6.42145Z" fill="black"/>
<path d="M60.8272 6.42145H54.8718V12.3769H60.8272V6.42145Z" fill="black"/>
<path d="M66.7826 6.42145H60.8272V12.3769H66.7826V6.42145Z" fill="black"/>
<path d="M72.738 6.42145H66.7826V12.3769H72.738V6.42145Z" fill="black"/>
<path d="M78.6934 6.42145H72.738V12.3769H78.6934V6.42145Z" fill="black"/>
<path d="M84.6488 6.42145H78.6934V12.3769H84.6488V6.42145Z" fill="black"/>
<path d="M96.5596 6.42145H90.6042V12.3769H96.5596V6.42145Z" fill="black"/>
<path d="M114.426 6.42145H108.47V12.3769H114.426V6.42145Z" fill="black"/>
<path d="M120.381 6.42145H114.426V12.3769H120.381V6.42145Z" fill="black"/>
<path d="M126.337 6.42145H120.381V12.3769H126.337V6.42145Z" fill="black"/>
<path d="M132.292 6.42145H126.337V12.3769H132.292V6.42145Z" fill="black"/>
<path d="M138.247 6.42145H132.292V12.3769H138.247V6.42145Z" fill="black"/>
<path d="M150.158 6.42145H144.203V12.3769H150.158V6.42145Z" fill="black"/>
<path d="M162.069 6.42145H156.114V12.3769H162.069V6.42145Z" fill="black"/>
<path d="M168.025 6.42145H162.069V12.3769H168.025V6.42145Z" fill="black"/>
<path d="M173.98 6.42145H168.025V12.3769H173.98V6.42145Z" fill="black"/>
<path d="M179.935 6.42145H173.98V12.3769H179.935V6.42145Z" fill="black"/>
<path d="M191.846 6.42145H185.891V12.3769H191.846V6.42145Z" fill="black"/>
<path d="M197.802 6.42145H191.846V12.3769H197.802V6.42145Z" fill="black"/>
<path d="M203.757 6.42145H197.802V12.3769H203.757V6.42145Z" fill="black"/>
<path d="M209.712 6.42145H203.757V12.3769H209.712V6.42145Z" fill="black"/>
<path d="M215.668 6.42145H209.712V12.3769H215.668V6.42145Z" fill="black"/>
<path d="M221.623 6.42145H215.668V12.3769H221.623V6.42145Z" fill="black"/>
<path d="M227.579 6.42145H221.623V12.3769H227.579V6.42145Z" fill="black"/>
<path d="M13.184 12.3769H7.22857V18.3323H13.184V12.3769Z" fill="black"/>
<path d="M48.9164 12.3769H42.961V18.3323H48.9164V12.3769Z" fill="black"/>
<path d="M66.7826 12.3769H60.8272V18.3323H66.7826V12.3769Z" fill="black"/>
<path d="M78.6934 12.3769H72.738V18.3323H78.6934V12.3769Z" fill="black"/>
<path d="M84.6488 12.3769H78.6934V18.3323H84.6488V12.3769Z" fill="black"/>
<path d="M102.515 12.3769H96.5596L96.5597 18.3323H102.515V12.3769Z" fill="black"/>
<path d="M114.426 12.3769H108.47V18.3323H114.426V12.3769Z" fill="black"/>
<path d="M144.203 12.3769H138.247V18.3323H144.203V12.3769Z" fill="black"/>
<path d="M168.025 12.3769H162.069V18.3323H168.025V12.3769Z" fill="black"/>
<path d="M191.846 12.3769H185.891V18.3323H191.846V12.3769Z" fill="black"/>
<path d="M227.579 12.3769H221.623V18.3323H227.579V12.3769Z" fill="black"/>
<path d="M13.184 18.3323H7.22857V24.2877H13.184V18.3323Z" fill="black"/>
<path d="M25.0948 18.3323H19.1394V24.2877H25.0948V18.3323Z" fill="black"/>
<path d="M31.0502 18.3323H25.0948V24.2877H31.0502V18.3323Z" fill="black"/>
<path d="M37.0056 18.3323H31.0502V24.2877H37.0056V18.3323Z" fill="black"/>
<path d="M48.9164 18.3323H42.961V24.2877H48.9164V18.3323Z" fill="black"/>
<path d="M66.7826 18.3323H60.8272V24.2877H66.7826V18.3323Z" fill="black"/>
<path d="M90.6042 18.3323H84.6488L84.6488 24.2877H90.6042V18.3323Z" fill="black"/>
<path d="M96.5597 18.3323H90.6042V24.2877H96.5596L96.5597 18.3323Z" fill="black"/>
<path d="M150.158 18.3323H144.203V24.2877H150.158V18.3323Z" fill="black"/>
<path d="M168.025 18.3323H162.069V24.2877H168.025V18.3323Z" fill="black"/>
<path d="M173.98 18.3323H168.025V24.2877H173.98V18.3323Z" fill="black"/>
<path d="M191.846 18.3323H185.891V24.2877H191.846V18.3323Z" fill="black"/>
<path d="M203.757 18.3323H197.802V24.2877H203.757V18.3323Z" fill="black"/>
<path d="M209.712 18.3323H203.757V24.2877H209.712V18.3323Z" fill="black"/>
<path d="M215.668 18.3323H209.712V24.2877H215.668V18.3323Z" fill="black"/>
<path d="M227.579 18.3323H221.623V24.2877H227.579V18.3323Z" fill="black"/>
<path d="M13.184 24.2877H7.22857V30.2431H13.184V24.2877Z" fill="black"/>
<path d="M25.0948 24.2877H19.1394V30.2431H25.0948V24.2877Z" fill="black"/>
<path d="M31.0502 24.2877H25.0948V30.2431H31.0502V24.2877Z" fill="black"/>
<path d="M37.0056 24.2877H31.0502V30.2431H37.0056V24.2877Z" fill="black"/>
<path d="M48.9164 24.2877H42.961V30.2431H48.9164V24.2877Z" fill="black"/>
<path d="M60.8272 24.2877H54.8718V30.2431H60.8272V24.2877Z" fill="black"/>
<path d="M78.6934 24.2877H72.738V30.2431H78.6934V24.2877Z" fill="black"/>
<path d="M90.6042 24.2877H84.6488V30.2431H90.6042V24.2877Z" fill="black"/>
<path d="M96.5596 24.2877H90.6042V30.2431H96.5596V24.2877Z" fill="black"/>
<path d="M102.515 24.2877H96.5596V30.2431H102.515V24.2877Z" fill="black"/>
<path d="M108.47 24.2877H102.515V30.2431H108.47V24.2877Z" fill="black"/>
<path d="M114.426 24.2877H108.47V30.2431H114.426V24.2877Z" fill="black"/>
<path d="M132.292 24.2877H126.337V30.2431H132.292V24.2877Z" fill="black"/>
<path d="M150.158 24.2877H144.203V30.2431H150.158V24.2877Z" fill="black"/>
<path d="M156.114 24.2877H150.158V30.2431H156.114V24.2877Z" fill="black"/>
<path d="M162.069 24.2877H156.114V30.2431H162.069V24.2877Z" fill="black"/>
<path d="M168.025 24.2877H162.069V30.2431H168.025V24.2877Z" fill="black"/>
<path d="M179.935 24.2877H173.98V30.2431H179.935V24.2877Z" fill="black"/>
<path d="M191.846 24.2877H185.891V30.2431H191.846V24.2877Z" fill="black"/>
<path d="M203.757 24.2877H197.802V30.2431H203.757V24.2877Z" fill="black"/>
<path d="M209.712 24.2877H203.757V30.2431H209.712V24.2877Z" fill="black"/>
<path d="M215.668 24.2877H209.712V30.2431H215.668V24.2877Z" fill="black"/>
<path d="M227.579 24.2877H221.623V30.2431H227.579V24.2877Z" fill="black"/>
<path d="M13.184 30.2431H7.22857V36.1985H13.184V30.2431Z" fill="black"/>
<path d="M25.0948 30.2431H19.1394V36.1985H25.0948V30.2431Z" fill="black"/>
<path d="M31.0502 30.2431H25.0948V36.1985H31.0502V30.2431Z" fill="black"/>
<path d="M37.0056 30.2431H31.0502V36.1985H37.0056V30.2431Z" fill="black"/>
<path d="M48.9164 30.2431H42.961V36.1985H48.9164V30.2431Z" fill="black"/>
<path d="M60.8272 30.2431H54.8718V36.1985H60.8272V30.2431Z" fill="black"/>
<path d="M72.738 30.2431H66.7826V36.1985H72.738V30.2431Z" fill="black"/>
<path d="M96.5596 30.2431H90.6042V36.1985H96.5596V30.2431Z" fill="black"/>
<path d="M102.515 30.2431H96.5596V36.1985H102.515V30.2431Z" fill="black"/>
<path d="M126.337 30.2431H120.381V36.1985H126.337V30.2431Z" fill="black"/>
<path d="M132.292 30.2431H126.337V36.1985H132.292V30.2431Z" fill="black"/>
<path d="M144.203 30.2431H138.247V36.1985H144.203V30.2431Z" fill="black"/>
<path d="M162.069 30.2431H156.114V36.1985H162.069V30.2431Z" fill="black"/>
<path d="M173.98 30.2431H168.025V36.1985H173.98V30.2431Z" fill="black"/>
<path d="M191.846 30.2431H185.891V36.1985H191.846V30.2431Z" fill="black"/>
<path d="M203.757 30.2431H197.802V36.1985H203.757V30.2431Z" fill="black"/>
<path d="M209.712 30.2431H203.757V36.1985H209.712V30.2431Z" fill="black"/>
<path d="M215.668 30.2431H209.712V36.1985H215.668V30.2431Z" fill="black"/>
<path d="M227.579 30.2431H221.623V36.1985H227.579V30.2431Z" fill="black"/>
<path d="M13.184 36.1985H7.22857V42.1539H13.184V36.1985Z" fill="black"/>
<path d="M48.9164 36.1985H42.961V42.1539H48.9164V36.1985Z" fill="black"/>
<path d="M60.8272 36.1985H54.8718V42.1539H60.8272V36.1985Z" fill="black"/>
<path d="M66.7826 36.1985H60.8272V42.1539H66.7826V36.1985Z" fill="black"/>
<path d="M78.6934 36.1985H72.738V42.1539H78.6934V36.1985Z" fill="black"/>
<path d="M90.6042 36.1985H84.6488V42.1539H90.6042V36.1985Z" fill="black"/>
<path d="M96.5596 36.1985H90.6042V42.1539H96.5596V36.1985Z" fill="black"/>
<path d="M108.47 36.1985H102.515L102.515 42.1539H108.47V36.1985Z" fill="black"/>
<path d="M126.337 36.1985H120.381V42.1539H126.337V36.1985Z" fill="black"/>
<path d="M132.292 36.1985H126.337V42.1539H132.292V36.1985Z" fill="black"/>
<path d="M138.247 36.1985H132.292V42.1539H138.247V36.1985Z" fill="black"/>
<path d="M150.158 36.1985H144.203V42.1539H150.158V36.1985Z" fill="black"/>
<path d="M162.069 36.1985H156.114V42.1539H162.069V36.1985Z" fill="black"/>
<path d="M179.935 36.1985H173.98V42.1539H179.935V36.1985Z" fill="black"/>
<path d="M191.846 36.1985H185.891V42.1539H191.846V36.1985Z" fill="black"/>
<path d="M227.579 36.1985H221.623V42.1539H227.579V36.1985Z" fill="black"/>
<path d="M13.184 42.1539H7.22857V48.1093H13.184V42.1539Z" fill="black"/>
<path d="M19.1394 42.1539H13.184V48.1093H19.1394V42.1539Z" fill="black"/>
<path d="M25.0948 42.1539H19.1394V48.1093H25.0948V42.1539Z" fill="black"/>
<path d="M31.0502 42.1539H25.0948V48.1093H31.0502V42.1539Z" fill="black"/>
<path d="M37.0056 42.1539H31.0502V48.1093H37.0056V42.1539Z" fill="black"/>
<path d="M42.961 42.1539H37.0056V48.1093H42.961V42.1539Z" fill="black"/>
<path d="M48.9164 42.1539H42.961V48.1093H48.9164V42.1539Z" fill="black"/>
<path d="M60.8272 42.1539H54.8718V48.1093H60.8272V42.1539Z" fill="black"/>
<path d="M72.738 42.1539H66.7826V48.1093H72.738V42.1539Z" fill="black"/>
<path d="M84.6488 42.1539H78.6934L78.6934 48.1093H84.6488L84.6488 42.1539Z" fill="black"/>
<path d="M96.5596 42.1539H90.6042V48.1093H96.5596V42.1539Z" fill="black"/>
<path d="M108.47 42.1539H102.515V48.1093H108.47V42.1539Z" fill="black"/>
<path d="M120.381 42.1539H114.426V48.1093H120.381V42.1539Z" fill="black"/>
<path d="M132.292 42.1539H126.337V48.1093H132.292V42.1539Z" fill="black"/>
<path d="M144.203 42.1539H138.247V48.1093H144.203V42.1539Z" fill="black"/>
<path d="M156.114 42.1539H150.158V48.1093H156.114V42.1539Z" fill="black"/>
<path d="M168.025 42.1539H162.069V48.1093H168.025V42.1539Z" fill="black"/>
<path d="M179.935 42.1539H173.98V48.1093H179.935V42.1539Z" fill="black"/>
<path d="M191.846 42.1539H185.891V48.1093H191.846V42.1539Z" fill="black"/>
<path d="M197.802 42.1539H191.846V48.1093H197.802V42.1539Z" fill="black"/>
<path d="M203.757 42.1539H197.802V48.1093H203.757V42.1539Z" fill="black"/>
<path d="M209.712 42.1539H203.757V48.1093H209.712V42.1539Z" fill="black"/>
<path d="M215.668 42.1539H209.712V48.1093H215.668V42.1539Z" fill="black"/>
<path d="M221.623 42.1539H215.668V48.1093H221.623V42.1539Z" fill="black"/>
<path d="M227.579 42.1539H221.623V48.1093H227.579V42.1539Z" fill="black"/>
<path d="M60.8272 48.1093H54.8718V54.0647H60.8272V48.1093Z" fill="black"/>
<path d="M66.7826 48.1093H60.8272V54.0647H66.7826V48.1093Z" fill="black"/>
<path d="M78.6934 48.1093H72.738V54.0647H78.6934L78.6934 48.1093Z" fill="black"/>
<path d="M84.6488 48.1093H78.6934L78.6934 54.0647H84.6488V48.1093Z" fill="black"/>
<path d="M114.426 48.1093H108.47L108.47 54.0647H114.426L114.426 48.1093Z" fill="black"/>
<path d="M120.381 48.1093H114.426L114.426 54.0647H120.381V48.1093Z" fill="black"/>
<path d="M144.203 48.1093H138.247V54.0647H144.203V48.1093Z" fill="black"/>
<path d="M150.158 48.1093H144.203V54.0647H150.158V48.1093Z" fill="black"/>
<path d="M156.114 48.1093H150.158V54.0647H156.114V48.1093Z" fill="black"/>
<path d="M179.935 48.1093H173.98V54.0647H179.935V48.1093Z" fill="black"/>
<path d="M13.184 54.0647H7.22857V60.0201H13.184V54.0647Z" fill="black"/>
<path d="M19.1394 54.0647H13.184V60.0201H19.1394V54.0647Z" fill="black"/>
<path d="M25.0948 54.0647H19.1394V60.0201H25.0948V54.0647Z" fill="black"/>
<path d="M37.0056 54.0647H31.0502V60.0201H37.0056V54.0647Z" fill="black"/>
<path d="M48.9164 54.0647H42.961V60.0201H48.9164V54.0647Z" fill="black"/>
<path d="M60.8272 54.0647H54.8718V60.0201H60.8272V54.0647Z" fill="black"/>
<path d="M84.6488 54.0647H78.6934L78.6934 60.0201H84.6488V54.0647Z" fill="black"/>
<path d="M108.47 54.0647H102.515V60.0201H108.47L108.47 54.0647Z" fill="black"/>
<path d="M114.426 54.0647H108.47L108.47 60.0201H114.426V54.0647Z" fill="black"/>
<path d="M126.337 54.0647H120.381V60.0201H126.337V54.0647Z" fill="black"/>
<path d="M132.292 54.0647H126.337V60.0201H132.292V54.0647Z" fill="black"/>
<path d="M144.203 54.0647H138.247V60.0201H144.203V54.0647Z" fill="black"/>
<path d="M150.158 54.0647H144.203V60.0201H150.158V54.0647Z" fill="black"/>
<path d="M168.025 54.0647H162.069V60.0201H168.025V54.0647Z" fill="black"/>
<path d="M173.98 54.0647H168.025V60.0201H173.98V54.0647Z" fill="black"/>
<path d="M185.891 54.0647H179.935V60.0201H185.891V54.0647Z" fill="black"/>
<path d="M191.846 54.0647H185.891V60.0201H191.846V54.0647Z" fill="black"/>
<path d="M197.802 54.0647H191.846V60.0201H197.802V54.0647Z" fill="black"/>
<path d="M203.757 54.0647H197.802V60.0201H203.757V54.0647Z" fill="black"/>
<path d="M209.712 54.0647H203.757V60.0201H209.712V54.0647Z" fill="black"/>
<path d="M227.579 54.0647H221.623V60.0201H227.579V54.0647Z" fill="black"/>
<path d="M13.184 60.0201H7.22857V65.9755H13.184V60.0201Z" fill="black"/>
<path d="M19.1394 60.0201H13.184V65.9755H19.1394V60.0201Z" fill="black"/>
<path d="M25.0948 60.0201H19.1394V65.9755H25.0948V60.0201Z" fill="black"/>
<path d="M54.8718 60.0201H48.9164V65.9755H54.8718V60.0201Z" fill="black"/>
<path d="M72.738 60.0201H66.7826V65.9755H72.738V60.0201Z" fill="black"/>
<path d="M84.6488 60.0201H78.6934V65.9755H84.6488V60.0201Z" fill="black"/>
<path d="M90.6042 60.0201H84.6488V65.9755H90.6042V60.0201Z" fill="black"/>
<path d="M96.5596 60.0201H90.6042V65.9755H96.5596V60.0201Z" fill="black"/>
<path d="M108.47 60.0201H102.515V65.9755H108.47V60.0201Z" fill="black"/>
<path d="M114.426 60.0201H108.47V65.9755H114.426V60.0201Z" fill="black"/>
<path d="M120.381 60.0201H114.426V65.9755H120.381V60.0201Z" fill="black"/>
<path d="M126.337 60.0201H120.381V65.9755H126.337V60.0201Z" fill="black"/>
<path d="M132.292 60.0201H126.337V65.9755H132.292V60.0201Z" fill="black"/>
<path d="M138.247 60.0201H132.292V65.9755H138.247V60.0201Z" fill="black"/>
<path d="M162.069 60.0201H156.114V65.9755H162.069V60.0201Z" fill="black"/>
<path d="M173.98 60.0201H168.025V65.9755H173.98V60.0201Z" fill="black"/>
<path d="M203.757 60.0201H197.802V65.9755H203.757V60.0201Z" fill="black"/>
<path d="M209.712 60.0201H203.757V65.9755H209.712V60.0201Z" fill="black"/>
<path d="M215.668 60.0201H209.712V65.9755H215.668V60.0201Z" fill="black"/>
<path d="M19.1394 65.9755H13.184V71.9309H19.1394V65.9755Z" fill="black"/>
<path d="M25.0948 65.9755H19.1394V71.9309H25.0948V65.9755Z" fill="black"/>
<path d="M31.0502 65.9755H25.0948V71.9309H31.0502V65.9755Z" fill="black"/>
<path d="M48.9164 65.9755H42.961V71.9309H48.9164V65.9755Z" fill="black"/>
<path d="M72.738 65.9755H66.7826V71.9309H72.738V65.9755Z" fill="black"/>
<path d="M84.6488 65.9755H78.6934V71.9309H84.6488V65.9755Z" fill="black"/>
<path d="M102.515 65.9755H96.5596L96.5597 71.9309H102.515L102.515 65.9755Z" fill="black"/>
<path d="M108.47 65.9755H102.515L102.515 71.9309H108.47V65.9755Z" fill="black"/>
<path d="M114.426 65.9755H108.47V71.9309H114.426V65.9755Z" fill="black"/>
<path d="M126.337 65.9755H120.381V71.9309H126.337V65.9755Z" fill="black"/>
<path d="M156.114 65.9755H150.158V71.9309H156.114V65.9755Z" fill="black"/>
<path d="M162.069 65.9755H156.114V71.9309H162.069V65.9755Z" fill="black"/>
<path d="M168.025 65.9755H162.069V71.9309H168.025V65.9755Z" fill="black"/>
<path d="M227.579 65.9755H221.623V71.9309H227.579V65.9755Z" fill="black"/>
<path d="M13.184 71.9309H7.22857V77.8863H13.184V71.9309Z" fill="black"/>
<path d="M19.1394 71.9309H13.184V77.8863H19.1394V71.9309Z" fill="black"/>
<path d="M25.0948 71.9309H19.1394V77.8863H25.0948V71.9309Z" fill="black"/>
<path d="M31.0502 71.9309H25.0948V77.8863H31.0502V71.9309Z" fill="black"/>
<path d="M42.961 71.9309H37.0056V77.8863H42.961V71.9309Z" fill="black"/>
<path d="M54.8718 71.9309H48.9164V77.8863H54.8718V71.9309Z" fill="black"/>
<path d="M60.8272 71.9309H54.8718V77.8863H60.8272V71.9309Z" fill="black"/>
<path d="M72.738 71.9309H66.7826V77.8863H72.738V71.9309Z" fill="black"/>
<path d="M78.6934 71.9309H72.738V77.8863H78.6934L78.6934 71.9309Z" fill="black"/>
<path d="M90.6042 71.9309H84.6488L84.6488 77.8863H90.6042V71.9309Z" fill="black"/>
<path d="M96.5597 71.9309H90.6042V77.8863H96.5596L96.5597 71.9309Z" fill="black"/>
<path d="M102.515 71.9309H96.5597L96.5596 77.8863H102.515V71.9309Z" fill="black"/>
<path d="M108.47 71.9309H102.515V77.8863H108.47V71.9309Z" fill="black"/>
<path d="M120.381 71.9309H114.426L114.426 77.8863H120.381V71.9309Z" fill="black"/>
<path d="M138.247 71.9309H132.292V77.8863H138.247V71.9309Z" fill="black"/>
<path d="M144.203 71.9309H138.247V77.8863H144.203V71.9309Z" fill="black"/>
<path d="M156.114 71.9309H150.158V77.8863H156.114V71.9309Z" fill="black"/>
<path d="M162.069 71.9309H156.114V77.8863H162.069V71.9309Z" fill="black"/>
<path d="M168.025 71.9309H162.069V77.8863H168.025V71.9309Z" fill="black"/>
<path d="M173.98 71.9309H168.025V77.8863H173.98V71.9309Z" fill="black"/>
<path d="M179.935 71.9309H173.98V77.8863H179.935V71.9309Z" fill="black"/>
<path d="M197.802 71.9309H191.846V77.8863H197.802V71.9309Z" fill="black"/>
<path d="M203.757 71.9309H197.802V77.8863H203.757V71.9309Z" fill="black"/>
<path d="M215.668 71.9309H209.712V77.8863H215.668V71.9309Z" fill="black"/>
<path d="M25.0948 77.8863H19.1394V83.8417H25.0948V77.8863Z" fill="black"/>
<path d="M37.0056 77.8863H31.0502V83.8417H37.0056V77.8863Z" fill="black"/>
<path d="M48.9164 77.8863H42.961V83.8417H48.9164V77.8863Z" fill="black"/>
<path d="M66.7826 77.8863H60.8272V83.8417H66.7826V77.8863Z" fill="black"/>
<path d="M78.6934 77.8863H72.738V83.8417H78.6934V77.8863Z" fill="black"/>
<path d="M90.6042 77.8863H84.6488V83.8417H90.6042V77.8863Z" fill="black"/>
<path d="M96.5596 77.8863H90.6042V83.8417H96.5596V77.8863Z" fill="black"/>
<path d="M102.515 77.8863H96.5596V83.8417H102.515V77.8863Z" fill="black"/>
<path d="M108.47 77.8863H102.515V83.8417H108.47V77.8863Z" fill="black"/>
<path d="M120.381 77.8863H114.426V83.8417H120.381V77.8863Z" fill="black"/>
<path d="M126.337 77.8863L120.381 77.8863V83.8417H126.337V77.8863Z" fill="black"/>
<path d="M132.292 77.8863L126.337 77.8863V83.8417H132.292V77.8863Z" fill="black"/>
<path d="M144.203 77.8863H138.247V83.8417H144.203V77.8863Z" fill="black"/>
<path d="M150.158 77.8863H144.203V83.8417H150.158V77.8863Z" fill="black"/>
<path d="M156.114 77.8863H150.158V83.8417H156.114V77.8863Z" fill="black"/>
<path d="M179.935 77.8863H173.98V83.8417H179.935V77.8863Z" fill="black"/>
<path d="M185.891 77.8863L179.935 77.8863V83.8417H185.891V77.8863Z" fill="black"/>
<path d="M191.846 77.8863L185.891 77.8863V83.8417H191.846V77.8863Z" fill="black"/>
<path d="M197.802 77.8863H191.846V83.8417H197.802V77.8863Z" fill="black"/>
<path d="M203.757 77.8863H197.802V83.8417H203.757V77.8863Z" fill="black"/>
<path d="M209.712 77.8863H203.757V83.8417H209.712V77.8863Z" fill="black"/>
<path d="M215.668 77.8863H209.712V83.8417H215.668V77.8863Z" fill="black"/>
<path d="M19.1394 83.8417L13.184 83.8417V89.7971H19.1394V83.8417Z" fill="black"/>
<path d="M25.0948 83.8417H19.1394V89.7971H25.0948V83.8417Z" fill="black"/>
<path d="M42.961 83.8417H37.0056V89.7971H42.961V83.8417Z" fill="black"/>
<path d="M54.8718 83.8417L48.9164 83.8417V89.7971H54.8718V83.8417Z" fill="black"/>
<path d="M66.7826 83.8417H60.8272V89.7971H66.7826V83.8417Z" fill="black"/>
<path d="M96.5596 83.8417H90.6042V89.7971H96.5596V83.8417Z" fill="black"/>
<path d="M114.426 83.8417H108.47L108.47 89.7971H114.426L114.426 83.8417Z" fill="black"/>
<path d="M132.292 83.8417H126.337V89.7971H132.292V83.8417Z" fill="black"/>
<path d="M156.114 83.8417H150.158V89.7971H156.114V83.8417Z" fill="black"/>
<path d="M173.98 83.8417L168.025 83.8417V89.7971H173.98V83.8417Z" fill="black"/>
<path d="M179.935 83.8417H173.98V89.7971H179.935V83.8417Z" fill="black"/>
<path d="M185.891 83.8417H179.935V89.7971H185.891V83.8417Z" fill="black"/>
<path d="M197.802 83.8417H191.846V89.7971H197.802V83.8417Z" fill="black"/>
<path d="M203.757 83.8417H197.802V89.7971H203.757V83.8417Z" fill="black"/>
<path d="M215.668 83.8417H209.712V89.7971H215.668V83.8417Z" fill="black"/>
<path d="M221.623 83.8417L215.668 83.8417V89.7971H221.623V83.8417Z" fill="black"/>
<path d="M227.579 83.8417H221.623V89.7971H227.579V83.8417Z" fill="black"/>
<path d="M37.0056 89.7971H31.0502V95.7525H37.0056V89.7971Z" fill="black"/>
<path d="M48.9164 89.7971H42.961V95.7525H48.9164V89.7971Z" fill="black"/>
<path d="M54.8718 89.7971H48.9164V95.7525H54.8718V89.7971Z" fill="black"/>
<path d="M72.738 89.7971H66.7826V95.7525H72.738V89.7971Z" fill="black"/>
<path d="M84.6488 89.7971H78.6934V95.7525H84.6488V89.7971Z" fill="black"/>
<path d="M90.6042 89.7971H84.6488V95.7525H90.6042V89.7971Z" fill="black"/>
<path d="M102.515 89.7971H96.5596L96.5597 95.7525H102.515V89.7971Z" fill="black"/>
<path d="M138.247 89.7971H132.292V95.7525H138.247V89.7971Z" fill="black"/>
<path d="M156.114 89.7971H150.158V95.7525H156.114V89.7971Z" fill="black"/>
<path d="M173.98 89.7971H168.025V95.7525H173.98V89.7971Z" fill="black"/>
<path d="M179.935 89.7971H173.98V95.7525H179.935V89.7971Z" fill="black"/>
<path d="M185.891 89.7971H179.935V95.7525H185.891V89.7971Z" fill="black"/>
<path d="M203.757 89.7971H197.802V95.7525H203.757V89.7971Z" fill="black"/>
<path d="M209.712 89.7971H203.757V95.7525H209.712V89.7971Z" fill="black"/>
<path d="M13.184 95.7525H7.22857V101.708H13.184V95.7525Z" fill="black"/>
<path d="M19.1394 95.7525H13.184V101.708H19.1394V95.7525Z" fill="black"/>
<path d="M25.0948 95.7525H19.1394V101.708H25.0948V95.7525Z" fill="black"/>
<path d="M31.0502 95.7525L25.0948 95.7525V101.708H31.0502V95.7525Z" fill="black"/>
<path d="M37.0056 95.7525H31.0502V101.708H37.0056V95.7525Z" fill="black"/>
<path d="M42.961 95.7525H37.0056V101.708H42.961V95.7525Z" fill="black"/>
<path d="M54.8718 95.7525H48.9164V101.708H54.8718V95.7525Z" fill="black"/>
<path d="M60.8272 95.7525L54.8718 95.7525V101.708H60.8272V95.7525Z" fill="black"/>
<path d="M78.6934 95.7525H72.738V101.708H78.6934L78.6934 95.7525Z" fill="black"/>
<path d="M90.6042 95.7525H84.6488L84.6488 101.708H90.6042V95.7525Z" fill="black"/>
<path d="M96.5597 95.7525H90.6042V101.708H96.5596L96.5597 95.7525Z" fill="black"/>
<path d="M120.381 95.7525H114.426V101.708H120.381V95.7525Z" fill="black"/>
<path d="M132.292 95.7525L126.337 95.7525V101.708H132.292V95.7525Z" fill="black"/>
<path d="M138.247 95.7525H132.292V101.708H138.247V95.7525Z" fill="black"/>
<path d="M144.203 95.7525L138.247 95.7525V101.708H144.203V95.7525Z" fill="black"/>
<path d="M150.158 95.7525L144.203 95.7525V101.708H150.158V95.7525Z" fill="black"/>
<path d="M156.114 95.7525H150.158V101.708H156.114V95.7525Z" fill="black"/>
<path d="M173.98 95.7525H168.025V101.708H173.98V95.7525Z" fill="black"/>
<path d="M185.891 95.7525H179.935V101.708H185.891V95.7525Z" fill="black"/>
<path d="M191.846 95.7525L185.891 95.7525V101.708H191.846V95.7525Z" fill="black"/>
<path d="M215.668 95.7525L209.712 95.7525V101.708H215.668V95.7525Z" fill="black"/>
<path d="M227.579 95.7525H221.623V101.708H227.579V95.7525Z" fill="black"/>
<path d="M13.184 101.708H7.22857V107.663H13.184V101.708Z" fill="black"/>
<path d="M42.961 101.708H37.0056V107.663H42.961V101.708Z" fill="black"/>
<path d="M48.9164 101.708H42.961V107.663H48.9164V101.708Z" fill="black"/>
<path d="M60.8272 101.708H54.8718V107.663H60.8272V101.708Z" fill="black"/>
<path d="M90.6042 101.708H84.6488V107.663H90.6042V101.708Z" fill="black"/>
<path d="M102.515 101.708L96.5596 101.708L96.5597 107.663H102.515V101.708Z" fill="black"/>
<path d="M108.47 101.708H102.515V107.663H108.47V101.708Z" fill="black"/>
<path d="M114.426 101.708L108.47 101.708V107.663H114.426L114.426 101.708Z" fill="black"/>
<path d="M132.292 101.708H126.337V107.663H132.292V101.708Z" fill="black"/>
<path d="M144.203 101.708H138.247V107.663H144.203V101.708Z" fill="black"/>
<path d="M150.158 101.708H144.203V107.663H150.158V101.708Z" fill="black"/>
<path d="M156.114 101.708H150.158V107.663H156.114V101.708Z" fill="black"/>
<path d="M162.069 101.708L156.114 101.708V107.663H162.069V101.708Z" fill="black"/>
<path d="M168.025 101.708L162.069 101.708V107.663H168.025V101.708Z" fill="black"/>
<path d="M179.935 101.708H173.98V107.663H179.935V101.708Z" fill="black"/>
<path d="M209.712 101.708L203.757 101.708V107.663H209.712V101.708Z" fill="black"/>
<path d="M215.668 101.708H209.712V107.663H215.668V101.708Z" fill="black"/>
<path d="M221.623 101.708H215.668V107.663H221.623V101.708Z" fill="black"/>
<path d="M227.579 101.708H221.623V107.663H227.579V101.708Z" fill="black"/>
<path d="M19.1394 107.663L13.184 107.663V113.619H19.1394V107.663Z" fill="black"/>
<path d="M31.0502 107.663H25.0948V113.619H31.0502V107.663Z" fill="black"/>
<path d="M37.0056 107.663L31.0502 107.663V113.619H37.0056V107.663Z" fill="black"/>
<path d="M42.961 107.663H37.0056V113.619H42.961V107.663Z" fill="black"/>
<path d="M78.6934 107.663H72.738V113.619H78.6934V107.663Z" fill="black"/>
<path d="M90.6042 107.663H84.6488V113.619H90.6042V107.663Z" fill="black"/>
<path d="M96.5597 107.663H90.6042V113.619H96.5596L96.5597 107.663Z" fill="black"/>
<path d="M102.515 107.663H96.5597L96.5596 113.619H102.515V107.663Z" fill="black"/>
<path d="M108.47 107.663H102.515V113.619H108.47V107.663Z" fill="black"/>
<path d="M114.426 107.663H108.47V113.619H114.426V107.663Z" fill="black"/>
<path d="M120.381 107.663L114.426 107.663V113.619H120.381V107.663Z" fill="black"/>
<path d="M132.292 107.663H126.337V113.619H132.292V107.663Z" fill="black"/>
<path d="M144.203 107.663H138.247V113.619H144.203V107.663Z" fill="black"/>
<path d="M150.158 107.663H144.203V113.619H150.158V107.663Z" fill="black"/>
<path d="M156.114 107.663H150.158V113.619H156.114V107.663Z" fill="black"/>
<path d="M197.802 107.663H191.846V113.619H197.802V107.663Z" fill="black"/>
<path d="M215.668 107.663H209.712V113.619H215.668V107.663Z" fill="black"/>
<path d="M221.623 107.663H215.668V113.619H221.623V107.663Z" fill="black"/>
<path d="M13.184 113.619L7.22857 113.619V119.574H13.184V113.619Z" fill="black"/>
<path d="M42.961 113.619H37.0056V119.574H42.961V113.619Z" fill="black"/>
<path d="M48.9164 113.619L42.961 113.619V119.574H48.9164V113.619Z" fill="black"/>
<path d="M60.8272 113.619H54.8718V119.574H60.8272V113.619Z" fill="black"/>
<path d="M72.738 113.619L66.7826 113.619V119.574H72.738V113.619Z" fill="black"/>
<path d="M78.6934 113.619H72.738V119.574H78.6934V113.619Z" fill="black"/>
<path d="M90.6042 113.619H84.6488V119.574H90.6042V113.619Z" fill="black"/>
<path d="M102.515 113.619H96.5596L96.5597 119.574H102.515V113.619Z" fill="black"/>
<path d="M114.426 113.619H108.47L108.47 119.574H114.426V113.619Z" fill="black"/>
<path d="M144.203 113.619H138.247V119.574H144.203V113.619Z" fill="black"/>
<path d="M156.114 113.619H150.158V119.574H156.114V113.619Z" fill="black"/>
<path d="M168.025 113.619H162.069V119.574H168.025V113.619Z" fill="black"/>
<path d="M197.802 113.619H191.846V119.574H197.802V113.619Z" fill="black"/>
<path d="M209.712 113.619L203.757 113.619V119.574H209.712V113.619Z" fill="black"/>
<path d="M13.184 119.574H7.22857V125.53H13.184V119.574Z" fill="black"/>
<path d="M31.0502 119.574H25.0948V125.53H31.0502V119.574Z" fill="black"/>
<path d="M37.0056 119.574H31.0502V125.53H37.0056V119.574Z" fill="black"/>
<path d="M84.6488 119.574H78.6934L78.6934 125.53H84.6488L84.6488 119.574Z" fill="black"/>
<path d="M96.5597 119.574H90.6042V125.53H96.5596L96.5597 119.574Z" fill="black"/>
<path d="M138.247 119.574H132.292V125.53H138.247V119.574Z" fill="black"/>
<path d="M150.158 119.574H144.203V125.53H150.158V119.574Z" fill="black"/>
<path d="M156.114 119.574H150.158V125.53H156.114V119.574Z" fill="black"/>
<path d="M162.069 119.574H156.114V125.53H162.069V119.574Z" fill="black"/>
<path d="M168.025 119.574H162.069V125.53H168.025V119.574Z" fill="black"/>
<path d="M185.891 119.574H179.935V125.53H185.891V119.574Z" fill="black"/>
<path d="M191.846 119.574H185.891V125.53H191.846V119.574Z" fill="black"/>
<path d="M197.802 119.574H191.846V125.53H197.802V119.574Z" fill="black"/>
<path d="M203.757 119.574H197.802V125.53H203.757V119.574Z" fill="black"/>
<path d="M215.668 119.574H209.712V125.53H215.668V119.574Z" fill="black"/>
<path d="M221.623 119.574H215.668V125.53H221.623V119.574Z" fill="black"/>
<path d="M19.1394 125.53H13.184V131.485H19.1394V125.53Z" fill="black"/>
<path d="M25.0948 125.53H19.1394V131.485H25.0948V125.53Z" fill="black"/>
<path d="M37.0056 125.53H31.0502V131.485H37.0056V125.53Z" fill="black"/>
<path d="M48.9164 125.53H42.961V131.485H48.9164V125.53Z" fill="black"/>
<path d="M60.8272 125.53H54.8718V131.485H60.8272V125.53Z" fill="black"/>
<path d="M66.7826 125.53H60.8272V131.485H66.7826V125.53Z" fill="black"/>
<path d="M84.6488 125.53H78.6934V131.485H84.6488V125.53Z" fill="black"/>
<path d="M102.515 125.53H96.5596L96.5597 131.485H102.515V125.53Z" fill="black"/>
<path d="M108.47 125.53H102.515V131.485H108.47V125.53Z" fill="black"/>
<path d="M114.426 125.53H108.47V131.485H114.426V125.53Z" fill="black"/>
<path d="M120.381 125.53H114.426V131.485H120.381V125.53Z" fill="black"/>
<path d="M132.292 125.53H126.337V131.485H132.292V125.53Z" fill="black"/>
<path d="M144.203 125.53H138.247V131.485H144.203V125.53Z" fill="black"/>
<path d="M162.069 125.53H156.114V131.485H162.069V125.53Z" fill="black"/>
<path d="M168.025 125.53H162.069V131.485H168.025V125.53Z" fill="black"/>
<path d="M173.98 125.53H168.025V131.485H173.98V125.53Z" fill="black"/>
<path d="M179.935 125.53H173.98V131.485H179.935V125.53Z" fill="black"/>
<path d="M185.891 125.53H179.935V131.485H185.891V125.53Z" fill="black"/>
<path d="M191.846 125.53H185.891V131.485H191.846V125.53Z" fill="black"/>
<path d="M197.802 125.53H191.846V131.485H197.802V125.53Z" fill="black"/>
<path d="M215.668 125.53H209.712V131.485H215.668V125.53Z" fill="black"/>
<path d="M221.623 125.53H215.668V131.485H221.623V125.53Z" fill="black"/>
<path d="M19.1394 131.485H13.184V137.44H19.1394V131.485Z" fill="black"/>
<path d="M25.0948 131.485H19.1394V137.44H25.0948V131.485Z" fill="black"/>
<path d="M31.0502 131.485H25.0948V137.44H31.0502V131.485Z" fill="black"/>
<path d="M42.961 131.485H37.0056V137.44H42.961V131.485Z" fill="black"/>
<path d="M54.8718 131.485H48.9164V137.44H54.8718V131.485Z" fill="black"/>
<path d="M60.8272 131.485H54.8718V137.44H60.8272V131.485Z" fill="black"/>
<path d="M96.5597 131.485H90.6042V137.44H96.5596L96.5597 131.485Z" fill="black"/>
<path d="M108.47 131.485H102.515L102.515 137.44H108.47V131.485Z" fill="black"/>
<path d="M114.426 131.485H108.47V137.44H114.426V131.485Z" fill="black"/>
<path d="M120.381 131.485H114.426V137.44H120.381V131.485Z" fill="black"/>
<path d="M138.247 131.485H132.292V137.44H138.247V131.485Z" fill="black"/>
<path d="M150.158 131.485H144.203V137.44H150.158V131.485Z" fill="black"/>
<path d="M156.114 131.485H150.158V137.44H156.114V131.485Z" fill="black"/>
<path d="M191.846 131.485H185.891V137.44H191.846V131.485Z" fill="black"/>
<path d="M203.757 131.485H197.802V137.44H203.757V131.485Z" fill="black"/>
<path d="M209.712 131.485H203.757V137.44H209.712V131.485Z" fill="black"/>
<path d="M19.1394 137.44H13.184V143.396H19.1394V137.44Z" fill="black"/>
<path d="M37.0056 137.44H31.0502V143.396H37.0056V137.44Z" fill="black"/>
<path d="M48.9164 137.44H42.961V143.396H48.9164V137.44Z" fill="black"/>
<path d="M66.7826 137.44H60.8272V143.396H66.7826V137.44Z" fill="black"/>
<path d="M96.5596 137.44H90.6042V143.396H96.5596V137.44Z" fill="black"/>
<path d="M126.337 137.44H120.381V143.396H126.337V137.44Z" fill="black"/>
<path d="M144.203 137.44H138.247V143.396H144.203V137.44Z" fill="black"/>
<path d="M150.158 137.44H144.203V143.396H150.158V137.44Z" fill="black"/>
<path d="M168.025 137.44H162.069V143.396H168.025V137.44Z" fill="black"/>
<path d="M185.891 137.44H179.935V143.396H185.891V137.44Z" fill="black"/>
<path d="M191.846 137.44H185.891V143.396H191.846V137.44Z" fill="black"/>
<path d="M197.802 137.44H191.846V143.396H197.802V137.44Z" fill="black"/>
<path d="M203.757 137.44H197.802V143.396H203.757V137.44Z" fill="black"/>
<path d="M215.668 137.44H209.712V143.396H215.668V137.44Z" fill="black"/>
<path d="M13.184 143.396H7.22857V149.351H13.184V143.396Z" fill="black"/>
<path d="M42.961 143.396H37.0056V149.351H42.961V143.396Z" fill="black"/>
<path d="M60.8272 143.396H54.8718V149.351H60.8272V143.396Z" fill="black"/>
<path d="M90.6042 143.396H84.6488V149.351H90.6042V143.396Z" fill="black"/>
<path d="M102.515 143.396H96.5596L96.5597 149.351H102.515V143.396Z" fill="black"/>
<path d="M114.426 143.396H108.47V149.351H114.426V143.396Z" fill="black"/>
<path d="M120.381 143.396H114.426V149.351H120.381V143.396Z" fill="black"/>
<path d="M138.247 143.396H132.292V149.351H138.247V143.396Z" fill="black"/>
<path d="M144.203 143.396H138.247V149.351H144.203V143.396Z" fill="black"/>
<path d="M156.114 143.396H150.158V149.351H156.114V143.396Z" fill="black"/>
<path d="M168.025 143.396H162.069V149.351H168.025V143.396Z" fill="black"/>
<path d="M173.98 143.396H168.025V149.351H173.98V143.396Z" fill="black"/>
<path d="M191.846 143.396H185.891V149.351H191.846V143.396Z" fill="black"/>
<path d="M197.802 143.396H191.846V149.351H197.802V143.396Z" fill="black"/>
<path d="M203.757 143.396H197.802V149.351H203.757V143.396Z" fill="black"/>
<path d="M215.668 143.396H209.712V149.351H215.668V143.396Z" fill="black"/>
<path d="M221.623 143.396H215.668V149.351H221.623V143.396Z" fill="black"/>
<path d="M227.579 143.396H221.623V149.351H227.579V143.396Z" fill="black"/>
<path d="M13.184 149.351H7.22857V155.307H13.184V149.351Z" fill="black"/>
<path d="M25.0948 149.351H19.1394V155.307H25.0948V149.351Z" fill="black"/>
<path d="M31.0502 149.351H25.0948V155.307H31.0502V149.351Z" fill="black"/>
<path d="M37.0056 149.351H31.0502V155.307H37.0056V149.351Z" fill="black"/>
<path d="M48.9164 149.351H42.961V155.307H48.9164V149.351Z" fill="black"/>
<path d="M60.8272 149.351H54.8718V155.307H60.8272V149.351Z" fill="black"/>
<path d="M72.738 149.351H66.7826V155.307H72.738V149.351Z" fill="black"/>
<path d="M84.6488 149.351H78.6934V155.307H84.6488L84.6488 149.351Z" fill="black"/>
<path d="M114.426 149.351H108.47V155.307H114.426V149.351Z" fill="black"/>
<path d="M126.337 149.351H120.381V155.307H126.337V149.351Z" fill="black"/>
<path d="M132.292 149.351H126.337V155.307H132.292V149.351Z" fill="black"/>
<path d="M150.158 149.351H144.203V155.307H150.158V149.351Z" fill="black"/>
<path d="M156.114 149.351H150.158V155.307H156.114V149.351Z" fill="black"/>
<path d="M168.025 149.351H162.069V155.307H168.025V149.351Z" fill="black"/>
<path d="M179.935 149.351H173.98V155.307H179.935V149.351Z" fill="black"/>
<path d="M191.846 149.351H185.891V155.307H191.846V149.351Z" fill="black"/>
<path d="M209.712 149.351H203.757V155.307H209.712V149.351Z" fill="black"/>
<path d="M221.623 149.351H215.668V155.307H221.623V149.351Z" fill="black"/>
<path d="M227.579 149.351H221.623V155.307H227.579V149.351Z" fill="black"/>
<path d="M13.184 155.307H7.22857V161.262H13.184V155.307Z" fill="black"/>
<path d="M25.0948 155.307H19.1394V161.262H25.0948V155.307Z" fill="black"/>
<path d="M31.0502 155.307H25.0948V161.262H31.0502V155.307Z" fill="black"/>
<path d="M42.961 155.307H37.0056V161.262H42.961V155.307Z" fill="black"/>
<path d="M54.8718 155.307H48.9164V161.262H54.8718V155.307Z" fill="black"/>
<path d="M72.738 155.307H66.7826V161.262H72.738V155.307Z" fill="black"/>
<path d="M90.6042 155.307H84.6488L84.6488 161.262H90.6042V155.307Z" fill="black"/>
<path d="M96.5596 155.307H90.6042V161.262H96.5596V155.307Z" fill="black"/>
<path d="M108.47 155.307H102.515V161.262H108.47L108.47 155.307Z" fill="black"/>
<path d="M120.381 155.307H114.426L114.426 161.262H120.381V155.307Z" fill="black"/>
<path d="M126.337 155.307H120.381V161.262H126.337V155.307Z" fill="black"/>
<path d="M144.203 155.307H138.247V161.262H144.203V155.307Z" fill="black"/>
<path d="M156.114 155.307H150.158V161.262H156.114V155.307Z" fill="black"/>
<path d="M179.935 155.307H173.98V161.262H179.935V155.307Z" fill="black"/>
<path d="M185.891 155.307H179.935V161.262H185.891V155.307Z" fill="black"/>
<path d="M203.757 155.307H197.802V161.262H203.757V155.307Z" fill="black"/>
<path d="M209.712 155.307H203.757V161.262H209.712V155.307Z" fill="black"/>
<path d="M215.668 155.307H209.712V161.262H215.668V155.307Z" fill="black"/>
<path d="M19.1394 161.262H13.184V167.217H19.1394V161.262Z" fill="black"/>
<path d="M37.0056 161.262H31.0502V167.217H37.0056V161.262Z" fill="black"/>
<path d="M42.961 161.262H37.0056V167.217H42.961V161.262Z" fill="black"/>
<path d="M48.9164 161.262H42.961V167.217H48.9164V161.262Z" fill="black"/>
<path d="M72.738 161.262H66.7826V167.217H72.738V161.262Z" fill="black"/>
<path d="M90.6042 161.262H84.6488V167.217H90.6042V161.262Z" fill="black"/>
<path d="M102.515 161.262H96.5596L96.5597 167.217H102.515L102.515 161.262Z" fill="black"/>
<path d="M108.47 161.262H102.515L102.515 167.217H108.47V161.262Z" fill="black"/>
<path d="M114.426 161.262H108.47V167.217H114.426L114.426 161.262Z" fill="black"/>
<path d="M120.381 161.262H114.426L114.426 167.217H120.381V161.262Z" fill="black"/>
<path d="M132.292 161.262H126.337V167.217H132.292V161.262Z" fill="black"/>
<path d="M138.247 161.262H132.292V167.217H138.247V161.262Z" fill="black"/>
<path d="M144.203 161.262H138.247V167.217H144.203V161.262Z" fill="black"/>
<path d="M156.114 161.262H150.158V167.217H156.114V161.262Z" fill="black"/>
<path d="M162.069 161.262H156.114V167.217H162.069V161.262Z" fill="black"/>
<path d="M168.025 161.262H162.069V167.217H168.025V161.262Z" fill="black"/>
<path d="M173.98 161.262H168.025V167.217H173.98V161.262Z" fill="black"/>
<path d="M197.802 161.262H191.846V167.217H197.802V161.262Z" fill="black"/>
<path d="M203.757 161.262H197.802V167.217H203.757V161.262Z" fill="black"/>
<path d="M209.712 161.262H203.757V167.217H209.712V161.262Z" fill="black"/>
<path d="M215.668 161.262H209.712V167.217H215.668V161.262Z" fill="black"/>
<path d="M221.623 161.262H215.668V167.217H221.623V161.262Z" fill="black"/>
<path d="M227.579 161.262H221.623V167.217H227.579V161.262Z" fill="black"/>
<path d="M60.8272 167.217H54.8718V173.173H60.8272V167.217Z" fill="black"/>
<path d="M66.7826 167.217H60.8272V173.173H66.7826V167.217Z" fill="black"/>
<path d="M72.738 167.217H66.7826V173.173H72.738V167.217Z" fill="black"/>
<path d="M78.6934 167.217H72.738V173.173H78.6934V167.217Z" fill="black"/>
<path d="M84.6488 167.217H78.6934V173.173H84.6488L84.6488 167.217Z" fill="black"/>
<path d="M90.6042 167.217H84.6488L84.6488 173.173H90.6042V167.217Z" fill="black"/>
<path d="M96.5597 167.217H90.6042V173.173H96.5596L96.5597 167.217Z" fill="black"/>
<path d="M102.515 167.217H96.5597L96.5596 173.173H102.515V167.217Z" fill="black"/>
<path d="M108.47 167.217H102.515V173.173H108.47V167.217Z" fill="black"/>
<path d="M114.426 167.217H108.47V173.173H114.426V167.217Z" fill="black"/>
<path d="M120.381 167.217H114.426V173.173H120.381V167.217Z" fill="black"/>
<path d="M126.337 167.217H120.381V173.173H126.337V167.217Z" fill="black"/>
<path d="M132.292 167.217H126.337V173.173H132.292V167.217Z" fill="black"/>
<path d="M138.247 167.217H132.292V173.173H138.247V167.217Z" fill="black"/>
<path d="M144.203 167.217H138.247V173.173H144.203V167.217Z" fill="black"/>
<path d="M150.158 167.217H144.203V173.173H150.158V167.217Z" fill="black"/>
<path d="M156.114 167.217H150.158V173.173H156.114V167.217Z" fill="black"/>
<path d="M162.069 167.217H156.114V173.173H162.069V167.217Z" fill="black"/>
<path d="M168.025 167.217H162.069V173.173H168.025V167.217Z" fill="black"/>
<path d="M179.935 167.217H173.98V173.173H179.935V167.217Z" fill="black"/>
<path d="M185.891 167.217H179.935V173.173H185.891V167.217Z" fill="black"/>
<path d="M197.802 167.217H191.846V173.173H197.802V167.217Z" fill="black"/>
<path d="M203.757 167.217H197.802V173.173H203.757V167.217Z" fill="black"/>
<path d="M221.623 167.217H215.668V173.173H221.623V167.217Z" fill="black"/>
<path d="M227.579 167.217H221.623V173.173H227.579V167.217Z" fill="black"/>
<path d="M13.184 173.173H7.22857V179.128H13.184V173.173Z" fill="black"/>
<path d="M19.1394 173.173H13.184V179.128H19.1394V173.173Z" fill="black"/>
<path d="M37.0056 173.173H31.0502V179.128H37.0056V173.173Z" fill="black"/>
<path d="M48.9164 173.173H42.961V179.128H48.9164V173.173Z" fill="black"/>
<path d="M54.8718 173.173H48.9164V179.128H54.8718V173.173Z" fill="black"/>
<path d="M66.7826 173.173H60.8272V179.128H66.7826V173.173Z" fill="black"/>
<path d="M78.6934 173.173H72.738V179.128H78.6934V173.173Z" fill="black"/>
<path d="M84.6488 173.173H78.6934V179.128H84.6488V173.173Z" fill="black"/>
<path d="M90.6042 173.173H84.6488V179.128H90.6042V173.173Z" fill="black"/>
<path d="M96.5596 173.173H90.6042V179.128H96.5596V173.173Z" fill="black"/>
<path d="M102.515 173.173H96.5596V179.128H102.515V173.173Z" fill="black"/>
<path d="M108.47 173.173H102.515V179.128H108.47V173.173Z" fill="black"/>
<path d="M114.426 173.173H108.47V179.128H114.426V173.173Z" fill="black"/>
<path d="M132.292 173.173H126.337V179.128H132.292V173.173Z" fill="black"/>
<path d="M144.203 173.173H138.247V179.128H144.203V173.173Z" fill="black"/>
<path d="M150.158 173.173H144.203V179.128H150.158V173.173Z" fill="black"/>
<path d="M179.935 173.173H173.98V179.128H179.935V173.173Z" fill="black"/>
<path d="M185.891 173.173H179.935V179.128H185.891V173.173Z" fill="black"/>
<path d="M191.846 173.173H185.891V179.128H191.846V173.173Z" fill="black"/>
<path d="M197.802 173.173H191.846V179.128H197.802V173.173Z" fill="black"/>
<path d="M203.757 173.173H197.802V179.128H203.757V173.173Z" fill="black"/>
<path d="M215.668 173.173H209.712V179.128H215.668V173.173Z" fill="black"/>
<path d="M227.579 173.173H221.623V179.128H227.579V173.173Z" fill="black"/>
<path d="M60.8272 179.128H54.8718V185.084H60.8272V179.128Z" fill="black"/>
<path d="M66.7826 179.128H60.8272V185.084H66.7826V179.128Z" fill="black"/>
<path d="M90.6042 179.128H84.6488L84.6488 185.084H90.6042V179.128Z" fill="black"/>
<path d="M102.515 179.128H96.5596L96.5597 185.084H102.515V179.128Z" fill="black"/>
<path d="M108.47 179.128H102.515V185.084H108.47V179.128Z" fill="black"/>
<path d="M126.337 179.128H120.381V185.084H126.337V179.128Z" fill="black"/>
<path d="M132.292 179.128H126.337V185.084H132.292V179.128Z" fill="black"/>
<path d="M138.247 179.128H132.292V185.084H138.247V179.128Z" fill="black"/>
<path d="M144.203 179.128H138.247V185.084H144.203V179.128Z" fill="black"/>
<path d="M156.114 179.128H150.158V185.084H156.114V179.128Z" fill="black"/>
<path d="M162.069 179.128H156.114V185.084H162.069V179.128Z" fill="black"/>
<path d="M168.025 179.128H162.069V185.084H168.025V179.128Z" fill="black"/>
<path d="M173.98 179.128H168.025V185.084H173.98V179.128Z" fill="black"/>
<path d="M179.935 179.128H173.98V185.084H179.935V179.128Z" fill="black"/>
<path d="M203.757 179.128H197.802V185.084H203.757V179.128Z" fill="black"/>
<path d="M215.668 179.128H209.712V185.084H215.668V179.128Z" fill="black"/>
<path d="M221.623 179.128H215.668V185.084H221.623V179.128Z" fill="black"/>
<path d="M227.579 179.128H221.623V185.084H227.579V179.128Z" fill="black"/>
<path d="M13.184 185.084H7.22857V191.039H13.184V185.084Z" fill="black"/>
<path d="M19.1394 185.084H13.184V191.039H19.1394V185.084Z" fill="black"/>
<path d="M25.0948 185.084H19.1394V191.039H25.0948V185.084Z" fill="black"/>
<path d="M31.0502 185.084H25.0948V191.039H31.0502V185.084Z" fill="black"/>
<path d="M37.0056 185.084H31.0502V191.039H37.0056V185.084Z" fill="black"/>
<path d="M42.961 185.084H37.0056V191.039H42.961V185.084Z" fill="black"/>
<path d="M48.9164 185.084H42.961V191.039H48.9164V185.084Z" fill="black"/>
<path d="M72.738 185.084H66.7826V191.039H72.738V185.084Z" fill="black"/>
<path d="M84.6488 185.084H78.6934V191.039H84.6488L84.6488 185.084Z" fill="black"/>
<path d="M102.515 185.084H96.5597V191.039H102.515V185.084Z" fill="black"/>
<path d="M108.47 185.084H102.515V191.039H108.47V185.084Z" fill="black"/>
<path d="M120.381 185.084H114.426V191.039H120.381V185.084Z" fill="black"/>
<path d="M132.292 185.084H126.337V191.039H132.292V185.084Z" fill="black"/>
<path d="M144.203 185.084H138.247V191.039H144.203V185.084Z" fill="black"/>
<path d="M156.114 185.084H150.158V191.039H156.114V185.084Z" fill="black"/>
<path d="M168.025 185.084H162.069V191.039H168.025V185.084Z" fill="black"/>
<path d="M179.935 185.084H173.98V191.039H179.935V185.084Z" fill="black"/>
<path d="M191.846 185.084H185.891V191.039H191.846V185.084Z" fill="black"/>
<path d="M203.757 185.084H197.802V191.039H203.757V185.084Z" fill="black"/>
<path d="M209.712 185.084H203.757V191.039H209.712V185.084Z" fill="black"/>
<path d="M227.579 185.084H221.623V191.039H227.579V185.084Z" fill="black"/>
<path d="M13.184 191.039H7.22857V196.994H13.184V191.039Z" fill="black"/>
<path d="M48.9164 191.039H42.961V196.994H48.9164V191.039Z" fill="black"/>
<path d="M72.738 191.039H66.7826V196.994H72.738V191.039Z" fill="black"/>
<path d="M78.6934 191.039H72.738V196.994H78.6934L78.6934 191.039Z" fill="black"/>
<path d="M102.515 191.039H96.5597V196.994H102.515V191.039Z" fill="black"/>
<path d="M108.47 191.039H102.515V196.994H108.47V191.039Z" fill="black"/>
<path d="M132.292 191.039H126.337V196.994H132.292V191.039Z" fill="black"/>
<path d="M144.203 191.039H138.247V196.994H144.203V191.039Z" fill="black"/>
<path d="M150.158 191.039H144.203V196.994H150.158V191.039Z" fill="black"/>
<path d="M162.069 191.039H156.114V196.994H162.069V191.039Z" fill="black"/>
<path d="M168.025 191.039H162.069V196.994H168.025V191.039Z" fill="black"/>
<path d="M179.935 191.039H173.98V196.994H179.935V191.039Z" fill="black"/>
<path d="M203.757 191.039H197.802V196.994H203.757V191.039Z" fill="black"/>
<path d="M227.579 191.039H221.623V196.994H227.579V191.039Z" fill="black"/>
<path d="M13.184 196.994H7.22857V202.95H13.184V196.994Z" fill="black"/>
<path d="M25.0948 196.994H19.1394V202.95H25.0948V196.994Z" fill="black"/>
<path d="M31.0502 196.994H25.0948V202.95H31.0502V196.994Z" fill="black"/>
<path d="M37.0056 196.994H31.0502V202.95H37.0056V196.994Z" fill="black"/>
<path d="M48.9164 196.994H42.961V202.95H48.9164V196.994Z" fill="black"/>
<path d="M60.8272 196.994H54.8718V202.95H60.8272V196.994Z" fill="black"/>
<path d="M66.7826 196.994H60.8272V202.95H66.7826V196.994Z" fill="black"/>
<path d="M90.6042 196.994H84.6488V202.95H90.6042V196.994Z" fill="black"/>
<path d="M96.5597 196.994H90.6042V202.95H96.5596L96.5597 196.994Z" fill="black"/>
<path d="M120.381 196.994H114.426V202.95H120.381V196.994Z" fill="black"/>
<path d="M132.292 196.994H126.337V202.95H132.292V196.994Z" fill="black"/>
<path d="M138.247 196.994H132.292V202.95H138.247V196.994Z" fill="black"/>
<path d="M150.158 196.994H144.203V202.95H150.158V196.994Z" fill="black"/>
<path d="M162.069 196.994H156.114V202.95H162.069V196.994Z" fill="black"/>
<path d="M168.025 196.994H162.069V202.95H168.025V196.994Z" fill="black"/>
<path d="M173.98 196.994H168.025V202.95H173.98V196.994Z" fill="black"/>
<path d="M179.935 196.994H173.98V202.95H179.935V196.994Z" fill="black"/>
<path d="M185.891 196.994H179.935V202.95H185.891V196.994Z" fill="black"/>
<path d="M191.846 196.994H185.891V202.95H191.846V196.994Z" fill="black"/>
<path d="M197.802 196.994H191.846V202.95H197.802V196.994Z" fill="black"/>
<path d="M203.757 196.994H197.802V202.95H203.757V196.994Z" fill="black"/>
<path d="M215.668 196.994H209.712V202.95H215.668V196.994Z" fill="black"/>
<path d="M221.623 196.994H215.668V202.95H221.623V196.994Z" fill="black"/>
<path d="M13.184 202.95H7.22857V208.905H13.184V202.95Z" fill="black"/>
<path d="M25.0948 202.95H19.1394V208.905H25.0948V202.95Z" fill="black"/>
<path d="M31.0502 202.95H25.0948V208.905H31.0502V202.95Z" fill="black"/>
<path d="M37.0056 202.95H31.0502V208.905H37.0056V202.95Z" fill="black"/>
<path d="M48.9164 202.95H42.961V208.905H48.9164V202.95Z" fill="black"/>
<path d="M66.7826 202.95H60.8272V208.905H66.7826V202.95Z" fill="black"/>
<path d="M78.6934 202.95H72.738V208.905H78.6934V202.95Z" fill="black"/>
<path d="M84.6488 202.95H78.6934V208.905H84.6488L84.6488 202.95Z" fill="black"/>
<path d="M90.6042 202.95H84.6488L84.6488 208.905H90.6042V202.95Z" fill="black"/>
<path d="M96.5596 202.95H90.6042V208.905H96.5596V202.95Z" fill="black"/>
<path d="M102.515 202.95H96.5596V208.905H102.515V202.95Z" fill="black"/>
<path d="M114.426 202.95H108.47V208.905H114.426L114.426 202.95Z" fill="black"/>
<path d="M126.337 202.95H120.381V208.905H126.337V202.95Z" fill="black"/>
<path d="M132.292 202.95H126.337V208.905H132.292V202.95Z" fill="black"/>
<path d="M144.203 202.95H138.247V208.905H144.203V202.95Z" fill="black"/>
<path d="M150.158 202.95H144.203V208.905H150.158V202.95Z" fill="black"/>
<path d="M168.025 202.95H162.069V208.905H168.025V202.95Z" fill="black"/>
<path d="M173.98 202.95H168.025V208.905H173.98V202.95Z" fill="black"/>
<path d="M179.935 202.95H173.98V208.905H179.935V202.95Z" fill="black"/>
<path d="M209.712 202.95H203.757V208.905H209.712V202.95Z" fill="black"/>
<path d="M221.623 202.95H215.668V208.905H221.623V202.95Z" fill="black"/>
<path d="M13.184 208.905H7.22857V214.861H13.184V208.905Z" fill="black"/>
<path d="M25.0948 208.905H19.1394V214.861H25.0948V208.905Z" fill="black"/>
<path d="M31.0502 208.905H25.0948V214.861H31.0502V208.905Z" fill="black"/>
<path d="M37.0056 208.905H31.0502V214.861H37.0056V208.905Z" fill="black"/>
<path d="M48.9164 208.905H42.961V214.861H48.9164V208.905Z" fill="black"/>
<path d="M60.8272 208.905H54.8718V214.861H60.8272V208.905Z" fill="black"/>
<path d="M66.7826 208.905H60.8272V214.861H66.7826V208.905Z" fill="black"/>
<path d="M78.6934 208.905H72.738V214.861H78.6934V208.905Z" fill="black"/>
<path d="M96.5596 208.905H90.6042V214.861H96.5596V208.905Z" fill="black"/>
<path d="M102.515 208.905H96.5596V214.861H102.515V208.905Z" fill="black"/>
<path d="M108.47 208.905H102.515V214.861H108.47L108.47 208.905Z" fill="black"/>
<path d="M120.381 208.905H114.426L114.426 214.861H120.381V208.905Z" fill="black"/>
<path d="M138.247 208.905H132.292V214.861H138.247V208.905Z" fill="black"/>
<path d="M150.158 208.905H144.203V214.861H150.158V208.905Z" fill="black"/>
<path d="M173.98 208.905H168.025V214.861H173.98V208.905Z" fill="black"/>
<path d="M179.935 208.905H173.98V214.861H179.935V208.905Z" fill="black"/>
<path d="M185.891 208.905H179.935V214.861H185.891V208.905Z" fill="black"/>
<path d="M209.712 208.905H203.757V214.861H209.712V208.905Z" fill="black"/>
<path d="M221.623 208.905H215.668V214.861H221.623V208.905Z" fill="black"/>
<path d="M13.184 214.861H7.22857V220.816H13.184V214.861Z" fill="black"/>
<path d="M48.9164 214.861H42.961V220.816H48.9164V214.861Z" fill="black"/>
<path d="M60.8272 214.861H54.8718V220.816H60.8272V214.861Z" fill="black"/>
<path d="M66.7826 214.861H60.8272V220.816H66.7826V214.861Z" fill="black"/>
<path d="M78.6934 214.861H72.738V220.816H78.6934V214.861Z" fill="black"/>
<path d="M90.6042 214.861H84.6488V220.816H90.6042V214.861Z" fill="black"/>
<path d="M96.5596 214.861H90.6042V220.816H96.5596V214.861Z" fill="black"/>
<path d="M168.025 214.861H162.069V220.816H168.025V214.861Z" fill="black"/>
<path d="M173.98 214.861H168.025V220.816H173.98V214.861Z" fill="black"/>
<path d="M185.891 214.861H179.935V220.816H185.891V214.861Z" fill="black"/>
<path d="M203.757 214.861H197.802V220.816H203.757V214.861Z" fill="black"/>
<path d="M209.712 214.861H203.757V220.816H209.712V214.861Z" fill="black"/>
<path d="M215.668 214.861H209.712V220.816H215.668V214.861Z" fill="black"/>
<path d="M221.623 214.861H215.668V220.816H221.623V214.861Z" fill="black"/>
<path d="M13.184 220.816H7.22857V226.771H13.184V220.816Z" fill="black"/>
<path d="M19.1394 220.816H13.184V226.771H19.1394V220.816Z" fill="black"/>
<path d="M25.0948 220.816H19.1394V226.771H25.0948V220.816Z" fill="black"/>
<path d="M31.0502 220.816H25.0948V226.771H31.0502V220.816Z" fill="black"/>
<path d="M37.0056 220.816H31.0502V226.771H37.0056V220.816Z" fill="black"/>
<path d="M42.961 220.816H37.0056V226.771H42.961V220.816Z" fill="black"/>
<path d="M48.9164 220.816H42.961V226.771H48.9164V220.816Z" fill="black"/>
<path d="M60.8272 220.816H54.8718V226.771H60.8272V220.816Z" fill="black"/>
<path d="M72.738 220.816H66.7826V226.771H72.738V220.816Z" fill="black"/>
<path d="M78.6934 220.816H72.738V226.771H78.6934V220.816Z" fill="black"/>
<path d="M84.6488 220.816H78.6934V226.771H84.6488L84.6488 220.816Z" fill="black"/>
<path d="M96.5596 220.816H90.6042V226.771H96.5596V220.816Z" fill="black"/>
<path d="M120.381 220.816H114.426V226.771H120.381V220.816Z" fill="black"/>
<path d="M126.337 220.816H120.381V226.771H126.337V220.816Z" fill="black"/>
<path d="M138.247 220.816H132.292V226.771H138.247V220.816Z" fill="black"/>
<path d="M144.203 220.816H138.247V226.771H144.203V220.816Z" fill="black"/>
<path d="M150.158 220.816H144.203V226.771H150.158V220.816Z" fill="black"/>
<path d="M156.114 220.816H150.158V226.771H156.114V220.816Z" fill="black"/>
<path d="M168.025 220.816H162.069V226.771H168.025V220.816Z" fill="black"/>
<path d="M173.98 220.816H168.025V226.771H173.98V220.816Z" fill="black"/>
<path d="M191.846 220.816H185.891V226.771H191.846V220.816Z" fill="black"/>
<path d="M197.802 220.816H191.846V226.771H197.802V220.816Z" fill="black"/>
<path d="M203.757 220.816H197.802V226.771H203.757V220.816Z" fill="black"/>
<path d="M215.668 220.816H209.712V226.771H215.668V220.816Z" fill="black"/>
<path d="M221.623 220.816H215.668V226.771H221.623V220.816Z" fill="black"/>
<path d="M227.579 220.816H221.623V226.771H227.579V220.816Z" fill="black"/>
</svg>
