<svg width="100" height="81" viewBox="0 0 100 81" fill="none" xmlns="http://www.w3.org/2000/svg">
<path d="M69.4233 49.7325C69.0613 49.6194 68.7716 49.3414 68.6403 48.984C66.0134 41.8319 59.2611 36.6254 51.2205 36.3759C42.8719 36.1169 35.6399 41.2796 32.8655 48.6954C32.722 49.079 32.3953 49.3657 31.9964 49.4527C23.5946 51.2858 17.4064 57.1468 17.2257 64.282C17.0011 73.1509 26.1434 80.6299 37.6456 80.9868C42.5332 81.1384 47.0604 79.9796 50.6682 77.9163C51.0399 77.7037 51.4976 77.7047 51.8711 77.9181C54.8747 79.635 58.4795 80.6893 62.3751 80.8102C73.1385 81.1441 82.0458 74.2251 82.2702 65.3561C82.4489 58.2906 77.0631 52.1191 69.4233 49.7325Z" fill="white" fill-opacity="0.93"/>
<path d="M19.7278 29.3498C22.529 36.2503 20.676 43.5356 15.589 45.622C10.502 47.7083 4.10735 43.8056 1.30612 36.9051C-1.4951 30.0046 0.357884 22.7193 5.44489 20.6329C10.5319 18.5466 16.9266 22.4493 19.7278 29.3498Z" fill="white" fill-opacity="0.93"/>
<path d="M80.3904 32.5907C77.0123 39.1916 78.2362 46.6264 83.1241 49.1967C88.012 51.767 94.7129 48.4996 98.091 41.8988C101.469 35.2979 100.245 27.8631 95.3573 25.2928C90.4694 22.7225 83.7685 25.9899 80.3904 32.5907Z" fill="white" fill-opacity="0.93"/>
<path d="M45.612 16.4273C46.4908 25.7435 42.3725 33.7384 36.4135 34.2844C30.4545 34.8304 24.9113 27.7208 24.0325 18.4046C23.1537 9.08839 27.2721 1.09349 33.2311 0.547475C39.1901 0.00145752 44.7332 7.11109 45.612 16.4273Z" fill="white" fill-opacity="0.93"/>
<path d="M55.8598 14.7395C54.188 23.9317 57.6057 32.292 63.4934 33.4129C69.3811 34.5337 75.5094 27.9906 77.1812 18.7984C78.853 9.60616 75.4353 1.2458 69.5476 0.124973C63.6598 -0.995857 57.5316 5.54728 55.8598 14.7395Z" fill="white" fill-opacity="0.93"/>
</svg>
