<svg width="114" height="57" viewBox="0 0 114 57" fill="none" xmlns="http://www.w3.org/2000/svg">
<g clip-path="url(#clip0_49_712)">
<path d="M0 12.4075L6.90269 24.7456V32.2716L0.008075 44.5854L0 12.4075Z" fill="#5B57A2"/>
<path d="M26.5033 20.255L32.9714 16.2907L46.2086 16.2784L26.5033 28.3501V20.255Z" fill="#D90751"/>
<path d="M26.4672 12.3343L26.5036 28.6695L19.5849 24.4183V0L26.4672 12.3343Z" fill="#FAB718"/>
<path d="M46.209 16.2787L32.9713 16.2911L26.4672 12.3343L19.5849 0L46.209 16.2787Z" fill="#ED6F26"/>
<path d="M26.5036 44.6538V36.7284L19.5849 32.5579L19.5886 57.0004L26.5036 44.6538Z" fill="#63B22F"/>
<path d="M32.9555 40.7256L6.90222 24.7456L0 12.4075L46.1808 40.7094L32.9555 40.7256Z" fill="#1487C9"/>
<path d="M19.5893 57.0005L26.5034 44.6538L32.9553 40.7255L46.1807 40.7094L19.5893 57.0005Z" fill="#017F36"/>
<path d="M0.00835037 44.5846L19.6415 32.5576L13.0409 28.5078L6.90296 32.2708L0.00835037 44.5846Z" fill="#984995"/>
<path fill-rule="evenodd" clip-rule="evenodd" d="M75.4705 30.437C79.9249 30.437 83.2328 27.7058 83.2328 23.5653C83.2328 19.5575 80.7924 16.9557 76.7135 16.9557C74.8311 16.9557 73.2777 17.618 72.1078 18.7615C72.3871 16.3986 74.3855 14.673 76.5857 14.673C77.0935 14.673 80.9163 14.6651 80.9163 14.6651L83.0781 10.5283C83.0781 10.5283 78.2787 10.6378 76.0476 10.6378C70.9498 10.7264 67.5066 15.3599 67.5066 20.9875C67.5066 27.5444 70.8648 30.437 75.4705 30.437ZM75.4976 20.6198C77.1515 20.6198 78.2979 21.7065 78.2979 23.5648C78.2979 25.2371 77.2793 26.6153 75.4976 26.6189C73.7931 26.6189 72.6465 25.3419 72.6465 23.5931C72.6465 21.7345 73.7931 20.6198 75.4976 20.6198ZM100.433 16.0033V29.9388H95.4573V20.1633H90.666V29.9388H85.6899V16.0024L100.433 16.0033ZM60.5258 26.079C62.2812 25.951 63.456 25.2733 63.456 25.2733L65.2976 28.6804C64.1183 29.4379 62.1832 29.9305 60.7805 29.9825C55.7622 30.0747 52.2714 27.0211 52.2714 22.5721C52.2714 18.1794 55.9853 15.0529 60.7805 15.0529C62.6805 15.0529 64.314 15.5626 65.5404 16.4923C65.2823 16.9497 64.9314 17.5833 64.5979 18.1895L64.0638 19.1627L63.5779 20.0515C63.5779 20.0515 61.8108 19.1256 60.4751 19.1256C58.2968 19.1256 56.7103 20.3915 56.7103 22.6C56.7103 24.8646 58.508 26.1389 60.5258 26.079ZM56.7117 39.3173C56.5597 39.5112 56.3599 39.6578 56.12 39.7566C55.8737 39.8567 55.6105 39.9078 55.3447 39.9064C55.0805 39.9101 54.8177 39.8661 54.5691 39.7766C54.3457 39.6953 54.1417 39.5687 53.9695 39.4049C53.7998 39.2408 53.6664 39.0426 53.5783 38.8233C53.4828 38.5834 53.4352 38.3269 53.4382 38.0685C53.4382 37.812 53.4823 37.5745 53.5738 37.3496C53.6617 37.1241 53.7895 36.9307 53.9496 36.7683C54.0222 36.6932 54.1013 36.6259 54.1861 36.5656L54.2381 36.5304C54.2926 36.4946 54.3495 36.4612 54.4083 36.4307L54.4717 36.3991L54.5174 36.3773C54.7372 36.2822 54.9771 36.2307 55.2407 36.2307C55.5246 36.2307 55.7884 36.2664 56.0281 36.3374C56.1797 36.382 56.3165 36.4455 56.4389 36.528C56.5108 36.5768 56.5776 36.632 56.6395 36.6937L56.348 37.1876C56.2068 37.0596 56.0407 36.9627 55.86 36.9024C55.6884 36.8472 55.5089 36.8194 55.3286 36.8199C55.1689 36.8199 55.017 36.8513 54.8692 36.9107C54.7238 36.9692 54.5907 37.055 54.4775 37.164C54.3615 37.2753 54.2704 37.4104 54.2094 37.5593C54.1417 37.7128 54.1096 37.883 54.1096 38.0727C54.1096 38.2662 54.1453 38.4401 54.2133 38.5904C54.2818 38.7444 54.3733 38.8752 54.4893 38.9856C54.6051 39.0964 54.741 39.1791 54.8968 39.2347C54.9604 39.2589 55.0253 39.2778 55.0916 39.2917C55.1883 39.3121 55.2885 39.3219 55.3927 39.3219C55.6084 39.3219 55.8046 39.2778 55.9723 39.1948C56.0602 39.1522 56.1435 39.1011 56.2209 39.0422C56.2896 38.9898 56.3536 38.9314 56.412 38.8673L56.7117 39.3173ZM57.5351 39.8234V36.3058H58.1667V38.9267L60.2211 36.3058H60.8529V39.8239H60.2211V37.2035L58.1667 39.8239L57.5351 39.8234ZM65.0377 39.3173C64.8823 39.513 64.6784 39.6643 64.4462 39.7566C64.3052 39.8136 64.1584 39.8549 64.0088 39.8795C63.8972 39.8976 63.784 39.9069 63.6706 39.9064C63.5647 39.9078 63.4589 39.9017 63.3542 39.8878C63.1979 39.8674 63.0442 39.8304 62.8953 39.7766C62.8442 39.758 62.7942 39.7371 62.7453 39.7139C62.6861 39.6856 62.6285 39.654 62.5729 39.6197C62.4736 39.558 62.3806 39.4861 62.2955 39.4049C62.1254 39.2408 61.9922 39.0426 61.9039 38.8233C61.8086 38.5834 61.7609 38.3269 61.7639 38.0685C61.7639 37.812 61.8079 37.5745 61.8998 37.3496C61.9882 37.1241 62.1157 36.9307 62.2756 36.7683C62.4356 36.6022 62.6274 36.4761 62.8431 36.3773C63.0708 36.2771 63.3177 36.2271 63.5665 36.2307C63.7316 36.2307 63.8896 36.2428 64.0401 36.2668L64.1284 36.2822C64.1618 36.2887 64.195 36.2961 64.2277 36.304L64.286 36.3184L64.3541 36.3374C64.594 36.4083 64.7976 36.5271 64.9657 36.6937L64.6738 37.1876C64.533 37.0596 64.3669 36.9627 64.1864 36.9024C64.1431 36.8885 64.0992 36.8759 64.0549 36.8652C64.0246 36.8583 63.9939 36.8523 63.9631 36.8468C63.9341 36.8416 63.9049 36.837 63.8757 36.8333L63.8112 36.8264C63.7592 36.8217 63.7071 36.8194 63.6549 36.8199C63.3374 36.8208 63.0323 36.9441 62.8032 37.164C62.7735 37.1932 62.7455 37.2234 62.719 37.2554C62.6877 37.293 62.6587 37.3329 62.6323 37.3741C62.5947 37.4331 62.5622 37.4947 62.5353 37.5593C62.5204 37.5927 62.5075 37.627 62.4962 37.6622C62.4829 37.7026 62.472 37.7438 62.4632 37.786C62.4446 37.8765 62.4356 37.9716 62.4356 38.0727C62.4356 38.1641 62.4435 38.2509 62.459 38.333C62.4682 38.3817 62.4801 38.4281 62.4945 38.4731C62.5075 38.5139 62.5226 38.5529 62.5395 38.5904C62.5823 38.6879 62.6348 38.776 62.6967 38.8553C62.7329 38.9016 62.7724 38.9448 62.815 38.9856C62.931 39.0964 63.0674 39.1791 63.223 39.2347C63.3789 39.2899 63.5428 39.3219 63.7184 39.3219C63.7921 39.3219 63.8631 39.3168 63.9315 39.3067C64.0633 39.2876 64.1851 39.2495 64.298 39.1948C64.464 39.1146 64.6135 39.0033 64.7377 38.8673L65.0377 39.3173ZM65.3653 36.3058H68.6029V36.9307H67.2999V39.8234H66.6683V36.9307H65.3653V36.3058ZM72.1724 39.4403C71.9966 39.5979 71.793 39.7129 71.5529 39.7881C71.3216 39.8627 71.0805 39.9013 70.8375 39.9026C70.7402 39.9041 70.6431 39.899 70.5465 39.8878C70.3774 39.8679 70.2109 39.8293 70.0501 39.7723C69.8141 39.6856 69.6147 39.5627 69.4506 39.4008C69.2832 39.2365 69.1524 39.0385 69.0668 38.82C68.9789 38.5946 68.9309 38.3418 68.9309 38.0649C68.9285 37.8194 68.9706 37.5759 69.0549 37.3458C69.1318 37.1292 69.2528 36.9316 69.4103 36.7646C69.4854 36.6872 69.5676 36.6166 69.6555 36.5545C69.7573 36.4826 69.8667 36.4218 69.9822 36.3731C70.114 36.3184 70.2566 36.278 70.4108 36.254C70.5229 36.2363 70.6409 36.2271 70.7655 36.2271C70.8388 36.2265 70.9119 36.2307 70.9839 36.2395C71.0494 36.2475 71.1143 36.259 71.1783 36.2738C71.2565 36.2924 71.3337 36.3165 71.409 36.3457C71.6051 36.4186 71.7845 36.53 71.9367 36.6737C71.9757 36.7113 72.0123 36.7502 72.0469 36.7915C72.0755 36.8254 72.1026 36.8602 72.128 36.8963C72.1672 36.9515 72.203 37.01 72.2345 37.0699C72.254 37.1069 72.2719 37.145 72.2883 37.1835C72.3246 37.2651 72.3533 37.3501 72.3746 37.4386C72.405 37.5643 72.4203 37.6979 72.4203 37.8398C72.4203 38.0018 72.4085 38.14 72.3804 38.2624H69.6464C69.6744 38.5951 69.7983 38.8553 70.0259 39.0413C70.2539 39.2273 70.5416 39.3177 70.8893 39.3177C71.0079 39.3177 71.1213 39.3085 71.2287 39.2899C71.3314 39.2723 71.429 39.2463 71.5211 39.2115C71.7087 39.1401 71.8646 39.0533 71.9806 38.9504L72.1724 39.4403ZM70.7375 36.8161C70.4097 36.8161 70.1499 36.9028 69.9542 37.0805C69.7605 37.2554 69.6371 37.4943 69.6065 37.7526H71.7648C71.7486 37.4604 71.6533 37.2313 71.4731 37.0652C71.4432 37.0374 71.4114 37.0123 71.378 36.9896C71.3464 36.9678 71.3133 36.9483 71.2785 36.9307C71.2523 36.9172 71.2249 36.9051 71.1966 36.8941C71.0633 36.8421 70.9097 36.8161 70.7375 36.8161ZM73.2797 36.3058H73.8552L75.2223 38.0491L76.5171 36.3058H77.0769V39.8239H76.4456V37.2586L75.2142 38.891H75.1901L73.9114 37.2582V39.8234H73.2797V36.3058ZM78.5192 36.4121C78.6088 36.374 78.701 36.3425 78.7952 36.3179C78.9991 36.2627 79.2108 36.2312 79.4351 36.2312C79.6534 36.2312 79.8438 36.2549 80.0059 36.3022C80.1143 36.3336 80.2101 36.3759 80.2928 36.4283C80.3719 36.478 80.4392 36.5374 80.4944 36.6064C80.5834 36.7154 80.6526 36.8448 80.7022 36.9943C80.7661 37.1867 80.7977 37.4122 80.7977 37.6701V39.828H80.2065V39.3735C80.1024 39.508 79.9586 39.6262 79.7785 39.7292C79.5989 39.8317 79.3628 39.8831 79.0671 39.8831C78.8528 39.8831 78.666 39.8428 78.5067 39.7621C78.4719 39.7445 78.4385 39.725 78.4062 39.7037C78.3845 39.6889 78.3631 39.673 78.3425 39.6569C78.3196 39.6387 78.2973 39.6192 78.2757 39.5988C78.076 39.4091 77.9758 39.1401 77.9758 38.7964C77.9739 38.6307 78.0094 38.4675 78.08 38.3177C78.1459 38.1812 78.2414 38.0611 78.3596 37.9665C78.4757 37.8714 78.6194 37.8 78.7871 37.7526C78.8203 37.7434 78.8539 37.7346 78.8878 37.7267L78.9388 37.7156L78.9961 37.7053C79.1 37.6873 79.2074 37.6775 79.3191 37.6775C79.4722 37.6794 79.6247 37.6951 79.7747 37.7252C79.9298 37.7521 80.0771 37.8129 80.2065 37.9034C80.2065 37.8333 80.2049 37.7656 80.2017 37.7003L80.1955 37.6042C80.1912 37.5523 80.1857 37.5017 80.1785 37.4526C80.1585 37.3143 80.1224 37.1961 80.0664 37.101C80.04 37.0564 80.0085 37.0151 79.9713 36.9789C79.954 36.9618 79.9354 36.9455 79.9155 36.9307C79.902 36.921 79.8879 36.9112 79.8731 36.9024C79.857 36.8927 79.8404 36.8838 79.8227 36.8755C79.7148 36.8203 79.5747 36.792 79.3989 36.792C79.179 36.792 78.9952 36.8161 78.8514 36.8676L78.7748 36.8959L78.7102 36.9205L78.6342 36.9515C78.5626 36.9817 78.4912 37.0142 78.4195 37.0495L78.2518 36.5508C78.3374 36.4979 78.4269 36.4515 78.5192 36.4121ZM79.2875 39.3177C79.5191 39.3177 79.7072 39.2709 79.8512 39.1679C79.9809 39.0816 80.0991 38.9791 80.2027 38.8632V38.4164C80.1328 38.3664 80.0583 38.3247 79.9792 38.2908C79.935 38.2718 79.8893 38.2555 79.8422 38.242C79.8095 38.2328 79.7761 38.2245 79.742 38.217C79.703 38.2086 79.6631 38.2021 79.6223 38.1971C79.552 38.1882 79.479 38.1836 79.4034 38.1836C79.3073 38.1836 79.2157 38.1952 79.1234 38.2189C79.0777 38.2299 79.0332 38.2453 78.9905 38.2648C78.9523 38.2819 78.9151 38.3023 78.8799 38.326C78.812 38.3733 78.7521 38.4327 78.7078 38.5079L78.6988 38.524C78.692 38.5366 78.686 38.5491 78.6806 38.5621C78.6746 38.5765 78.6696 38.5913 78.6651 38.6067C78.6609 38.6206 78.6575 38.635 78.6544 38.6498C78.6472 38.6855 78.6438 38.7235 78.6438 38.7644C78.6438 38.9305 78.6997 39.065 78.812 39.1675C78.8764 39.2245 78.9569 39.2658 79.0527 39.2903C79.1227 39.3085 79.2012 39.3177 79.2875 39.3177ZM86.7338 34.7649C86.6219 34.911 86.5022 35.0098 86.3744 35.0687C86.2461 35.1281 86.1065 35.168 85.9545 35.1996C85.8404 35.2232 85.7213 35.2449 85.5962 35.2677L85.4709 35.2909C85.2815 35.3257 85.0974 35.3855 84.9232 35.4686C84.857 35.4969 84.7938 35.5312 84.7341 35.5706C84.6914 35.5989 84.6506 35.6296 84.6119 35.663L84.5653 35.7052L84.5369 35.7334L84.5075 35.7646C84.486 35.7901 84.4651 35.816 84.4452 35.8424C84.4053 35.8949 84.3685 35.9491 84.3351 36.0058C84.3015 36.0628 84.2712 36.1222 84.2441 36.1838C84.1757 36.3374 84.1239 36.5002 84.0878 36.6699C84.052 36.8403 84.032 37.0058 84.0198 37.1677H84.036C84.0919 37.0416 84.1717 36.9307 84.2677 36.8314C84.3658 36.7313 84.4774 36.645 84.5994 36.5749C84.6261 36.5596 84.653 36.5448 84.6803 36.5304C84.7111 36.5146 84.7425 36.4997 84.7743 36.4858C84.8471 36.4538 84.9222 36.4269 84.9992 36.4051C85.1433 36.3657 85.291 36.3457 85.4429 36.3457C85.5913 36.3439 85.7391 36.3601 85.8829 36.394C85.9668 36.4139 86.0494 36.4399 86.1301 36.4719C86.3289 36.5508 86.5078 36.6728 86.654 36.8282C86.8002 36.9869 86.912 37.1737 86.9818 37.3774C87.0578 37.5912 87.0977 37.8319 87.0977 38.0964C87.0977 38.3418 87.0537 38.5747 86.9618 38.7922C86.9241 38.8859 86.8786 38.9754 86.8262 39.0598C86.7573 39.1711 86.6768 39.2733 86.5861 39.3655C86.4219 39.5325 86.2262 39.6652 86.0105 39.7566C85.7868 39.8517 85.5389 39.9031 85.2711 39.9031C84.9792 39.9031 84.7196 39.8517 84.4876 39.7491C84.2559 39.6466 84.0596 39.5038 83.8959 39.3141C83.732 39.128 83.6085 38.8993 83.5202 38.6261C83.4323 38.3534 83.3885 38.0496 83.3885 37.7133C83.3885 37.4526 83.4042 37.1802 83.4365 36.8954C83.4677 36.6161 83.5309 36.3421 83.6241 36.0771C83.7161 35.816 83.8521 35.579 84.0242 35.3698C84.1961 35.1601 84.4236 34.9945 84.7077 34.8716L84.7696 34.8447C84.8 34.8322 84.8306 34.8201 84.8615 34.809C84.9176 34.7886 84.9741 34.77 85.0315 34.7533C85.0658 34.7436 85.1003 34.7342 85.1351 34.7259C85.1787 34.7153 85.2228 34.706 85.2671 34.6981L85.4859 34.6605L85.6029 34.6401L85.7226 34.6187C85.7929 34.6067 85.8625 34.5905 85.9309 34.5701C85.9847 34.5543 86.0378 34.5362 86.0903 34.5158C86.1192 34.5046 86.1475 34.4903 86.1749 34.4741L86.2106 34.4508C86.2751 34.4059 86.3349 34.3456 86.3901 34.2709L86.7338 34.7649ZM84.0641 37.8319C84.0604 38.0407 84.09 38.249 84.1517 38.4485C84.2046 38.6173 84.2871 38.7751 84.3955 38.9151C84.499 39.0403 84.6286 39.1415 84.7754 39.2115C84.9232 39.2825 85.0834 39.3182 85.259 39.3182C85.3919 39.3182 85.5139 39.3002 85.6276 39.2634L85.6688 39.2495C85.6911 39.2417 85.7131 39.2329 85.735 39.2231C85.8731 39.1647 85.9982 39.0784 86.1025 38.9708C86.2069 38.8627 86.2885 38.7347 86.3426 38.5946C86.398 38.4527 86.4305 38.2982 86.4305 38.1283C86.4305 37.7846 86.3345 37.4999 86.1383 37.2712C86.0726 37.1951 85.9975 37.132 85.9123 37.0815C85.8426 37.0396 85.766 37.0068 85.6827 36.9822C85.5655 36.9479 85.4352 36.9307 85.291 36.9307C84.9927 36.9284 84.7023 37.0272 84.4676 37.2113C84.3638 37.2948 84.2759 37.3894 84.2078 37.4961C84.1842 37.5314 84.1629 37.568 84.1441 37.6061C84.129 37.6367 84.1154 37.6678 84.1035 37.6994C84.0873 37.7425 84.0741 37.787 84.0641 37.8319ZM91.3106 36.3063H91.9424V39.8243H91.3106V36.3063ZM88.6406 36.3063H88.0088H88.005V39.828H89.1522C89.2098 39.828 89.265 39.8262 89.3183 39.8228C89.3519 39.821 89.3847 39.8183 89.4166 39.815C89.4454 39.8122 89.4737 39.8089 89.5013 39.8048C89.6323 39.7862 89.7499 39.7566 89.8557 39.7176C89.9002 39.7009 89.9427 39.6833 89.9831 39.6643L90.0347 39.6383L90.0755 39.6165C90.1043 39.5997 90.1319 39.5822 90.1581 39.5636C90.175 39.552 90.1913 39.5399 90.2071 39.5279C90.2263 39.5125 90.2449 39.4968 90.2627 39.4806C90.2797 39.4652 90.2959 39.449 90.3111 39.4327C90.4232 39.3141 90.5075 39.1836 90.5554 39.0338C90.586 38.9448 90.6071 38.8558 90.6189 38.7653C90.6273 38.7027 90.6312 38.6391 90.6312 38.5747C90.6312 38.5408 90.6301 38.5074 90.6278 38.474C90.6259 38.4447 90.6232 38.416 90.6196 38.3872C90.6086 38.2963 90.5895 38.2077 90.5633 38.12C90.5192 37.9743 90.4432 37.844 90.3353 37.7332C90.2275 37.6223 90.0837 37.5319 89.9037 37.4642C89.7235 37.3974 89.4999 37.3616 89.2244 37.3616H88.6406V36.3063ZM89.1002 39.2389H88.6406V37.9503V37.942H89.1084C89.1673 37.942 89.223 37.9438 89.2756 37.948C89.3563 37.9544 89.4294 37.966 89.495 37.9823C89.5444 37.9943 89.5894 38.0097 89.6302 38.0272C89.682 38.05 89.7264 38.0769 89.7641 38.1084C89.8065 38.1456 89.8423 38.1877 89.871 38.236C89.9028 38.2889 89.9264 38.3487 89.941 38.4151C89.9533 38.4702 89.9596 38.5301 89.9596 38.5946C89.9596 38.8043 89.8961 38.9619 89.7678 39.0728C89.7118 39.1211 89.6379 39.1591 89.5459 39.1865C89.4271 39.2213 89.2782 39.2389 89.1002 39.2389ZM96.1194 39.3173C95.9676 39.5112 95.7676 39.6578 95.5278 39.7566C95.2815 39.8562 95.0183 39.9073 94.7525 39.9064C94.4883 39.9101 94.2256 39.8661 93.9769 39.7766C93.7536 39.6953 93.5494 39.5687 93.3774 39.4049C93.3122 39.3419 93.2523 39.2737 93.1983 39.2013L93.1544 39.1396C93.1387 39.1164 93.1236 39.0928 93.109 39.0686L93.0889 39.0348C93.0756 39.0121 93.0631 38.9888 93.051 38.9652C93.0348 38.9341 93.0194 38.9026 93.0051 38.8701L92.9856 38.8233C92.8905 38.5834 92.843 38.3269 92.846 38.0685C92.846 37.812 92.8896 37.5745 92.9817 37.3496C93.0696 37.1241 93.1974 36.9307 93.3574 36.7683C93.5174 36.6022 93.709 36.4761 93.9252 36.3773C94.1529 36.2771 94.3997 36.2271 94.6486 36.2307C94.932 36.2307 95.1962 36.2664 95.436 36.3374C95.6761 36.4083 95.8797 36.5271 96.0474 36.6937L95.7558 37.1876C95.6967 37.1338 95.6331 37.0856 95.5659 37.0434C95.5327 37.0225 95.4986 37.0031 95.4636 36.9849C95.4362 36.971 95.4084 36.958 95.3798 36.9455L95.3266 36.9237L95.2679 36.9024C95.0962 36.8472 94.9167 36.8194 94.7365 36.8199C94.6722 36.8199 94.6092 36.8249 94.547 36.8347C94.4549 36.8495 94.3652 36.8755 94.2765 36.9107C94.1312 36.9692 93.9982 37.0555 93.8853 37.164C93.8482 37.2002 93.8136 37.2387 93.7819 37.279L93.7541 37.3156C93.6992 37.3913 93.6534 37.473 93.6171 37.5593C93.5494 37.7128 93.5174 37.883 93.5174 38.0727C93.5174 38.2662 93.5532 38.4401 93.6211 38.5904C93.6891 38.7444 93.7812 38.8752 93.8971 38.9856C94.0128 39.0964 94.1487 39.1791 94.3047 39.2347C94.461 39.2899 94.6247 39.3219 94.8005 39.3219C94.9304 39.3219 95.0515 39.3062 95.1648 39.2751C95.1934 39.2672 95.2215 39.2583 95.2491 39.2486C95.2941 39.2333 95.3376 39.2152 95.38 39.1948C95.5461 39.1146 95.6955 39.0033 95.8198 38.8673L96.1194 39.3173ZM96.4472 36.3058H99.685V36.9307H98.3815V39.8234H97.7502V36.9307H96.4472V36.3058ZM100.372 36.3067H101.004V36.7215C101.124 36.5786 101.296 36.465 101.516 36.3699C101.736 36.2748 101.967 36.2275 102.215 36.2275C102.255 36.2265 102.295 36.2275 102.335 36.2298C102.415 36.2345 102.495 36.2446 102.574 36.2603C102.685 36.2827 102.793 36.3165 102.898 36.3616C103.096 36.4441 103.272 36.5699 103.414 36.7293C103.559 36.8932 103.67 37.0838 103.742 37.2902C103.779 37.3959 103.807 37.5068 103.827 37.6232C103.847 37.7467 103.858 37.8756 103.858 38.0101C103.858 38.2745 103.814 38.524 103.726 38.7565C103.638 38.9898 103.514 39.1874 103.35 39.3581C103.183 39.5279 102.985 39.6634 102.767 39.7571C102.539 39.8517 102.287 39.9026 102.007 39.9026C101.819 39.9026 101.635 39.8831 101.46 39.8438C101.284 39.8044 101.132 39.745 101.004 39.662V41.3889H100.372V36.3067ZM102.031 36.8161C101.819 36.8161 101.624 36.8639 101.444 36.9589C101.264 37.0536 101.116 37.1682 101.004 37.3022V39.0455C101.148 39.1415 101.306 39.2139 101.472 39.2593C101.624 39.2987 101.784 39.3182 101.955 39.3182C102.132 39.3215 102.308 39.2876 102.471 39.2194C102.618 39.1596 102.75 39.0691 102.859 38.9545C102.967 38.8386 103.051 38.7013 103.103 38.5514C103.159 38.3933 103.191 38.2235 103.191 38.0337C103.191 37.9938 103.19 37.9544 103.187 37.916L103.182 37.8533L103.177 37.8088L103.17 37.7629L103.162 37.7187L103.151 37.6673C103.141 37.625 103.129 37.5838 103.115 37.5434C103.067 37.3936 102.991 37.267 102.891 37.1562C102.791 37.0457 102.671 36.9627 102.527 36.9033C102.379 36.8439 102.215 36.8161 102.031 36.8161ZM108.071 36.3063H108.702V39.8239H108.071V36.3063ZM105.397 36.3063H104.765H104.761V39.8275H105.908C106.188 39.8275 106.42 39.7881 106.612 39.7176C106.804 39.6461 106.956 39.5515 107.067 39.4327C107.179 39.3141 107.263 39.1836 107.311 39.0334C107.363 38.8836 107.387 38.7328 107.387 38.5747C107.387 38.4164 107.363 38.2666 107.319 38.12C107.275 37.9743 107.199 37.8436 107.092 37.7332C106.984 37.6223 106.84 37.5314 106.66 37.4642C106.48 37.3974 106.256 37.3616 105.98 37.3616H105.397V36.3063ZM105.861 39.2389H105.401V37.9503V37.942H105.869C106.172 37.942 106.392 37.9976 106.524 38.1084C106.652 38.2193 106.72 38.3807 106.72 38.5946C106.72 38.8043 106.656 38.9619 106.528 39.0724C106.4 39.1836 106.176 39.2389 105.861 39.2389ZM111.732 38.0018L113.083 39.8239H112.308L111.265 38.4007L110.205 39.8239H109.47L110.813 38.0328L109.55 36.3058H110.325L111.289 37.6339L112.268 36.3058H113.003L111.732 38.0018ZM56.2444 44.1711H54.3058V47.1043H53.674V43.5867H56.8756V47.1043H56.2444V44.1711ZM60.4609 44.2106H59.214L59.1736 44.8034C59.146 45.1193 59.1122 45.3957 59.07 45.6342C59.0449 45.7748 59.0171 45.9023 58.986 46.0169C58.9019 46.3254 58.7979 46.5624 58.6783 46.7285C58.5586 46.8945 58.4183 47.0091 58.2582 47.0648C58.0931 47.1247 57.9185 47.1538 57.7428 47.1516L57.6948 46.5425C57.7628 46.5462 57.8426 46.5308 57.9305 46.4914C58.0189 46.4521 58.1068 46.3648 58.1903 46.2349C58.2745 46.0999 58.3506 45.9102 58.4183 45.6653C58.4862 45.4163 58.5306 45.0924 58.5542 44.6847L58.6185 43.59H61.0927V47.1079H60.4609V44.2106ZM62.2514 43.8274C62.4072 43.7286 62.5912 43.6498 62.7953 43.5946C63.0036 43.5371 63.2186 43.5079 63.4347 43.5079C63.9383 43.5079 64.2941 43.6335 64.494 43.8831C64.6976 44.1323 64.7981 44.488 64.7981 44.9463V47.1043H64.2062V46.6496C64.102 46.7841 63.9582 46.9029 63.7787 47.0054C63.5985 47.1084 63.3631 47.1599 63.0672 47.1599C62.7394 47.1599 62.4752 47.0648 62.2758 46.8751C62.166 46.7716 62.0868 46.644 62.0371 46.4933C61.9963 46.3685 61.9759 46.2284 61.9759 46.073C61.9756 46.048 61.9761 46.023 61.9775 45.9979C61.9805 45.9427 61.9877 45.8884 61.9991 45.8351C62.0165 45.752 62.0434 45.6713 62.0796 45.5943C62.1454 45.458 62.241 45.3378 62.3593 45.2432C62.4224 45.1912 62.4935 45.1466 62.5724 45.1091C62.6388 45.0776 62.7104 45.0511 62.7872 45.0293C62.9549 44.9816 63.1311 44.9542 63.3188 44.9542C63.4719 44.956 63.6242 44.9718 63.7743 45.0015C63.8318 45.0117 63.8882 45.0266 63.9429 45.0455C64.0362 45.078 64.1248 45.123 64.2062 45.1791C64.2062 45.0173 64.1981 44.8675 64.1781 44.7287C64.1674 44.6554 64.1524 44.5877 64.1322 44.526C64.1217 44.4944 64.1102 44.4644 64.0972 44.4361C64.0876 44.4157 64.0775 44.3957 64.0665 44.3771C64.0104 44.2821 63.9306 44.2032 63.8223 44.1516C63.752 44.116 63.6685 44.0913 63.5699 44.0789L63.5217 44.0738C63.4827 44.0705 63.4417 44.0687 63.3986 44.0687C63.1791 44.0687 62.9948 44.0928 62.8509 44.1438C62.8092 44.1586 62.7675 44.1744 62.7258 44.1906C62.624 44.2305 62.5218 44.2751 62.4196 44.3256L62.2514 43.8274ZM63.2912 46.5944C63.4361 46.5944 63.5639 46.5759 63.6744 46.5369C63.7407 46.5133 63.8008 46.4826 63.8546 46.4436C63.9844 46.3579 64.1028 46.2553 64.2066 46.1394V45.6927C63.9867 45.5349 63.7186 45.4603 63.4071 45.4603C63.3708 45.4603 63.3343 45.4616 63.2982 45.4649C63.2406 45.4705 63.1836 45.4807 63.1274 45.495C63.0352 45.5192 62.9516 45.5544 62.8837 45.6022C62.8157 45.6495 62.7554 45.7089 62.7119 45.784C62.6675 45.8591 62.6476 45.9422 62.6476 46.041C62.6476 46.2066 62.7036 46.3411 62.8157 46.4436C62.9275 46.5429 63.0832 46.5944 63.2912 46.5944ZM65.4213 43.5867H68.659V44.211H67.3555V47.1043H66.7243V44.2115H65.4213V43.5867ZM71.8943 46.9516C71.8052 46.998 71.7103 47.037 71.609 47.0685C71.3692 47.1437 71.1294 47.1835 70.8933 47.1835C70.6252 47.1868 70.3586 47.1427 70.1061 47.0527C69.8703 46.966 69.6701 46.8431 69.5063 46.6812C69.3423 46.5193 69.2108 46.3254 69.1224 46.1004C69.0345 45.8745 68.9865 45.6221 68.9865 45.3452C68.9845 45.0998 69.0264 44.8563 69.1107 44.6258C69.1466 44.5251 69.1921 44.4287 69.2463 44.3372C69.3085 44.2324 69.3822 44.1341 69.4665 44.0451C69.6286 43.8771 69.8232 43.744 70.0384 43.6535C70.2658 43.5584 70.5256 43.5074 70.8216 43.5074C71.0417 43.506 71.2599 43.5463 71.4652 43.6261C71.6612 43.699 71.8405 43.8108 71.9924 43.9541C72.143 44.0989 72.2625 44.2723 72.3445 44.4639C72.4324 44.6615 72.4764 44.8791 72.4764 45.1197C72.4764 45.2822 72.4641 45.4208 72.4365 45.5428H69.7026C69.7306 45.875 69.854 46.1362 70.082 46.3216C70.31 46.5072 70.5978 46.5981 70.9455 46.5981C71.1774 46.5981 71.3892 46.5629 71.5767 46.492C71.7648 46.4205 71.9208 46.3337 72.0367 46.2303L72.2285 46.7206C72.1269 46.8115 72.0161 46.8886 71.8943 46.9516ZM70.7898 44.0924C70.4619 44.0924 70.2021 44.1796 70.0064 44.3572C69.8129 44.5316 69.6893 44.7704 69.6587 45.0293H71.817C71.8011 44.7366 71.7051 44.5074 71.5255 44.3415C71.3455 44.1796 71.1018 44.0924 70.7898 44.0924ZM73.5837 43.5867H72.7842L74.0909 45.2822L72.7244 47.1043H73.4994L74.8025 45.2826L73.5837 43.5867ZM75.5901 43.5867H74.9583V47.1043H75.5901V43.5867ZM76.4573 45.2822L77.8482 47.1043H77.065L75.7458 45.2822L76.9727 43.5862H77.7567L76.4573 45.2822ZM81.3537 46.7206C81.1779 46.8783 80.9742 46.9933 80.7342 47.0685C80.5029 47.1427 80.2617 47.1817 80.0189 47.1835C79.7508 47.1868 79.4841 47.1427 79.2315 47.0527C78.9954 46.966 78.7959 46.8431 78.632 46.6812C78.468 46.5193 78.336 46.3254 78.2481 46.1004C78.1602 45.8745 78.1125 45.6221 78.1125 45.3452C78.1098 45.0998 78.1519 44.8563 78.2363 44.6258C78.3131 44.4096 78.4344 44.2115 78.5921 44.0451C78.7539 43.8771 78.9485 43.744 79.1635 43.6535C79.3915 43.5584 79.6513 43.5074 79.9468 43.5074C80.1668 43.506 80.3852 43.5463 80.5904 43.6261C80.7867 43.699 80.9659 43.8108 81.1181 43.9541C81.2683 44.0989 81.3878 44.2723 81.4696 44.4639C81.558 44.6615 81.6017 44.8791 81.6017 45.1197C81.6017 45.2822 81.5898 45.4208 81.5618 45.5428H78.8277C78.8557 45.875 78.9797 46.1362 79.2072 46.3216C79.4351 46.5072 79.7229 46.5981 80.0706 46.5981C80.3026 46.5981 80.5143 46.5629 80.7024 46.492C80.8901 46.4205 81.0459 46.3337 81.1618 46.2303L81.3537 46.7206ZM79.9155 44.0924C79.5877 44.0924 79.3278 44.1796 79.1317 44.3572C78.9382 44.5316 78.8145 44.7704 78.7839 45.0293H80.9425C80.9267 44.7366 80.8307 44.5074 80.6507 44.3415C80.4708 44.1796 80.2233 44.0924 79.9155 44.0924ZM83.7262 42.2434C83.8277 42.351 83.9741 42.4048 84.1643 42.4048C84.5158 42.4048 84.7118 42.1993 84.74 41.7883H85.3314C85.3314 41.946 85.3032 42.0884 85.2474 42.2229C85.1917 42.3574 85.1115 42.4721 85.0117 42.5667C84.9669 42.6075 84.9192 42.6455 84.868 42.6798C84.8003 42.7253 84.7261 42.7643 84.6441 42.7958C84.5627 42.8293 84.4762 42.8524 84.3837 42.8668C84.3127 42.8775 84.2382 42.8826 84.16 42.8826C84.0847 42.8826 84.0128 42.8784 83.9446 42.8701C83.8356 42.8566 83.7356 42.8324 83.6448 42.7958C83.497 42.7369 83.3688 42.6618 83.269 42.5667C83.2087 42.5096 83.157 42.4446 83.1141 42.3728C83.086 42.3259 83.0617 42.2758 83.041 42.2229C83.0121 42.1482 82.9906 42.0708 82.9774 41.9896C82.9668 41.9251 82.9612 41.8583 82.9612 41.7883H83.5569C83.5724 41.9892 83.6289 42.1408 83.7262 42.2434ZM83.0888 47.1043H82.4572V43.5862H83.0888V46.2066L85.1433 43.5862H85.7751V47.1043H85.1433V44.4834L83.0888 47.1043Z" fill="black"/>
</g>
<defs>
<clipPath id="clip0_49_712">
<rect width="114" height="57" fill="white"/>
</clipPath>
</defs>
</svg>
